<svg width="278" height="17" viewBox="0 0 278 17" fill="none" xmlns="http://www.w3.org/2000/svg">
<path d="M7.83402 9.675H3.27402L2.43402 12H0.994023L4.77402 1.605H6.34902L10.114 12H8.67402L7.83402 9.675ZM7.44402 8.565L5.55402 3.285L3.66402 8.565H7.44402ZM13.1264 0.9V12H11.7614V0.9H13.1264ZM16.8179 5.115C17.0579 4.645 17.3979 4.28 17.8379 4.02C18.2879 3.76 18.8329 3.63 19.4729 3.63V5.04H19.1129C17.5829 5.04 16.8179 5.87 16.8179 7.53V12H15.4529V3.78H16.8179V5.115ZM28.5486 7.575C28.5486 7.835 28.5336 8.11 28.5036 8.4H21.9336C21.9836 9.21 22.2586 9.845 22.7586 10.305C23.2686 10.755 23.8836 10.98 24.6036 10.98C25.1936 10.98 25.6836 10.845 26.0736 10.575C26.4736 10.295 26.7536 9.925 26.9136 9.465H28.3836C28.1636 10.255 27.7236 10.9 27.0636 11.4C26.4036 11.89 25.5836 12.135 24.6036 12.135C23.8236 12.135 23.1236 11.96 22.5036 11.61C21.8936 11.26 21.4136 10.765 21.0636 10.125C20.7136 9.475 20.5386 8.725 20.5386 7.875C20.5386 7.025 20.7086 6.28 21.0486 5.64C21.3886 5 21.8636 4.51 22.4736 4.17C23.0936 3.82 23.8036 3.645 24.6036 3.645C25.3836 3.645 26.0736 3.815 26.6736 4.155C27.2736 4.495 27.7336 4.965 28.0536 5.565C28.3836 6.155 28.5486 6.825 28.5486 7.575ZM27.1386 7.29C27.1386 6.77 27.0236 6.325 26.7936 5.955C26.5636 5.575 26.2486 5.29 25.8486 5.1C25.4586 4.9 25.0236 4.8 24.5436 4.8C23.8536 4.8 23.2636 5.02 22.7736 5.46C22.2936 5.9 22.0186 6.51 21.9486 7.29H27.1386ZM29.8403 7.86C29.8403 7.02 30.0103 6.285 30.3503 5.655C30.6903 5.015 31.1553 4.52 31.7453 4.17C32.3453 3.82 33.0103 3.645 33.7403 3.645C34.4603 3.645 35.0853 3.8 35.6153 4.11C36.1453 4.42 36.5403 4.81 36.8003 5.28V3.78H38.1803V12H36.8003V10.47C36.5303 10.95 36.1253 11.35 35.5853 11.67C35.0553 11.98 34.4353 12.135 33.7253 12.135C32.9953 12.135 32.3353 11.955 31.7453 11.595C31.1553 11.235 30.6903 10.73 30.3503 10.08C30.0103 9.43 29.8403 8.69 29.8403 7.86ZM36.8003 7.875C36.8003 7.255 36.6753 6.715 36.4253 6.255C36.1753 5.795 35.8353 5.445 35.4053 5.205C34.9853 4.955 34.5203 4.83 34.0103 4.83C33.5003 4.83 33.0353 4.95 32.6153 5.19C32.1953 5.43 31.8603 5.78 31.6103 6.24C31.3603 6.7 31.2353 7.24 31.2353 7.86C31.2353 8.49 31.3603 9.04 31.6103 9.51C31.8603 9.97 32.1953 10.325 32.6153 10.575C33.0353 10.815 33.5003 10.935 34.0103 10.935C34.5203 10.935 34.9853 10.815 35.4053 10.575C35.8353 10.325 36.1753 9.97 36.4253 9.51C36.6753 9.04 36.8003 8.495 36.8003 7.875ZM39.977 7.86C39.977 7.02 40.147 6.285 40.487 5.655C40.827 5.015 41.292 4.52 41.882 4.17C42.482 3.82 43.152 3.645 43.892 3.645C44.532 3.645 45.127 3.795 45.677 4.095C46.227 4.385 46.647 4.77 46.937 5.25V0.9H48.317V12H46.937V10.455C46.667 10.945 46.267 11.35 45.737 11.67C45.207 11.98 44.587 12.135 43.877 12.135C43.147 12.135 42.482 11.955 41.882 11.595C41.292 11.235 40.827 10.73 40.487 10.08C40.147 9.43 39.977 8.69 39.977 7.86ZM46.937 7.875C46.937 7.255 46.812 6.715 46.562 6.255C46.312 5.795 45.972 5.445 45.542 5.205C45.122 4.955 44.657 4.83 44.147 4.83C43.637 4.83 43.172 4.95 42.752 5.19C42.332 5.43 41.997 5.78 41.747 6.24C41.497 6.7 41.372 7.24 41.372 7.86C41.372 8.49 41.497 9.04 41.747 9.51C41.997 9.97 42.332 10.325 42.752 10.575C43.172 10.815 43.637 10.935 44.147 10.935C44.657 10.935 45.122 10.815 45.542 10.575C45.972 10.325 46.312 9.97 46.562 9.51C46.812 9.04 46.937 8.495 46.937 7.875ZM57.7038 3.78L52.7538 15.87H51.3438L52.9638 11.91L49.6488 3.78H51.1638L53.7438 10.44L56.2938 3.78H57.7038ZM67.1549 3.63C67.7749 3.63 68.3349 3.765 68.8349 4.035C69.3349 4.295 69.7249 4.69 70.0049 5.22C70.2949 5.75 70.4399 6.395 70.4399 7.155V12H69.0899V7.35C69.0899 6.53 68.8849 5.905 68.4749 5.475C68.0649 5.035 67.5049 4.815 66.7949 4.815C66.0749 4.815 65.4999 5.04 65.0699 5.49C64.6499 5.94 64.4399 6.595 64.4399 7.455V12H63.0749V0.9H64.4399V4.95C64.7099 4.53 65.0799 4.205 65.5499 3.975C66.0299 3.745 66.5649 3.63 67.1549 3.63ZM72.1596 7.86C72.1596 7.02 72.3296 6.285 72.6696 5.655C73.0096 5.015 73.4746 4.52 74.0646 4.17C74.6646 3.82 75.3296 3.645 76.0596 3.645C76.7796 3.645 77.4046 3.8 77.9346 4.11C78.4646 4.42 78.8596 4.81 79.1196 5.28V3.78H80.4996V12H79.1196V10.47C78.8496 10.95 78.4446 11.35 77.9046 11.67C77.3746 11.98 76.7546 12.135 76.0446 12.135C75.3146 12.135 74.6546 11.955 74.0646 11.595C73.4746 11.235 73.0096 10.73 72.6696 10.08C72.3296 9.43 72.1596 8.69 72.1596 7.86ZM79.1196 7.875C79.1196 7.255 78.9946 6.715 78.7446 6.255C78.4946 5.795 78.1546 5.445 77.7246 5.205C77.3046 4.955 76.8396 4.83 76.3296 4.83C75.8196 4.83 75.3546 4.95 74.9346 5.19C74.5146 5.43 74.1796 5.78 73.9296 6.24C73.6796 6.7 73.5546 7.24 73.5546 7.86C73.5546 8.49 73.6796 9.04 73.9296 9.51C74.1796 9.97 74.5146 10.325 74.9346 10.575C75.3546 10.815 75.8196 10.935 76.3296 10.935C76.8396 10.935 77.3046 10.815 77.7246 10.575C78.1546 10.325 78.4946 9.97 78.7446 9.51C78.9946 9.04 79.1196 8.495 79.1196 7.875ZM85.8664 10.74L88.4164 3.78H89.8714L86.6464 12H85.0564L81.8314 3.78H83.3014L85.8664 10.74ZM98.7146 7.575C98.7146 7.835 98.6996 8.11 98.6696 8.4H92.0996C92.1496 9.21 92.4246 9.845 92.9246 10.305C93.4346 10.755 94.0496 10.98 94.7696 10.98C95.3596 10.98 95.8496 10.845 96.2396 10.575C96.6396 10.295 96.9196 9.925 97.0796 9.465H98.5496C98.3296 10.255 97.8896 10.9 97.2296 11.4C96.5696 11.89 95.7496 12.135 94.7696 12.135C93.9896 12.135 93.2896 11.96 92.6696 11.61C92.0596 11.26 91.5796 10.765 91.2296 10.125C90.8796 9.475 90.7046 8.725 90.7046 7.875C90.7046 7.025 90.8746 6.28 91.2146 5.64C91.5546 5 92.0296 4.51 92.6396 4.17C93.2596 3.82 93.9696 3.645 94.7696 3.645C95.5496 3.645 96.2396 3.815 96.8396 4.155C97.4396 4.495 97.8996 4.965 98.2196 5.565C98.5496 6.155 98.7146 6.825 98.7146 7.575ZM97.3046 7.29C97.3046 6.77 97.1896 6.325 96.9596 5.955C96.7296 5.575 96.4146 5.29 96.0146 5.1C95.6246 4.9 95.1896 4.8 94.7096 4.8C94.0196 4.8 93.4296 5.02 92.9396 5.46C92.4596 5.9 92.1846 6.51 92.1146 7.29H97.3046ZM104.005 7.86C104.005 7.02 104.175 6.285 104.515 5.655C104.855 5.015 105.32 4.52 105.91 4.17C106.51 3.82 107.175 3.645 107.905 3.645C108.625 3.645 109.25 3.8 109.78 4.11C110.31 4.42 110.705 4.81 110.965 5.28V3.78H112.345V12H110.965V10.47C110.695 10.95 110.29 11.35 109.75 11.67C109.22 11.98 108.6 12.135 107.89 12.135C107.16 12.135 106.5 11.955 105.91 11.595C105.32 11.235 104.855 10.73 104.515 10.08C104.175 9.43 104.005 8.69 104.005 7.86ZM110.965 7.875C110.965 7.255 110.84 6.715 110.59 6.255C110.34 5.795 110 5.445 109.57 5.205C109.15 4.955 108.685 4.83 108.175 4.83C107.665 4.83 107.2 4.95 106.78 5.19C106.36 5.43 106.025 5.78 105.775 6.24C105.525 6.7 105.4 7.24 105.4 7.86C105.4 8.49 105.525 9.04 105.775 9.51C106.025 9.97 106.36 10.325 106.78 10.575C107.2 10.815 107.665 10.935 108.175 10.935C108.685 10.935 109.15 10.815 109.57 10.575C110 10.325 110.34 9.97 110.59 9.51C110.84 9.04 110.965 8.495 110.965 7.875ZM118.657 3.63C119.657 3.63 120.467 3.935 121.087 4.545C121.707 5.145 122.017 6.015 122.017 7.155V12H120.667V7.35C120.667 6.53 120.462 5.905 120.052 5.475C119.642 5.035 119.082 4.815 118.372 4.815C117.652 4.815 117.077 5.04 116.647 5.49C116.227 5.94 116.017 6.595 116.017 7.455V12H114.652V3.78H116.017V4.95C116.287 4.53 116.652 4.205 117.112 3.975C117.582 3.745 118.097 3.63 118.657 3.63ZM127.736 7.86C127.736 7.02 127.906 6.285 128.246 5.655C128.586 5.015 129.051 4.52 129.641 4.17C130.241 3.82 130.906 3.645 131.636 3.645C132.356 3.645 132.981 3.8 133.511 4.11C134.041 4.42 134.436 4.81 134.696 5.28V3.78H136.076V12H134.696V10.47C134.426 10.95 134.021 11.35 133.481 11.67C132.951 11.98 132.331 12.135 131.621 12.135C130.891 12.135 130.231 11.955 129.641 11.595C129.051 11.235 128.586 10.73 128.246 10.08C127.906 9.43 127.736 8.69 127.736 7.86ZM134.696 7.875C134.696 7.255 134.571 6.715 134.321 6.255C134.071 5.795 133.731 5.445 133.301 5.205C132.881 4.955 132.416 4.83 131.906 4.83C131.396 4.83 130.931 4.95 130.511 5.19C130.091 5.43 129.756 5.78 129.506 6.24C129.256 6.7 129.131 7.24 129.131 7.86C129.131 8.49 129.256 9.04 129.506 9.51C129.756 9.97 130.091 10.325 130.511 10.575C130.931 10.815 131.396 10.935 131.906 10.935C132.416 10.935 132.881 10.815 133.301 10.575C133.731 10.325 134.071 9.97 134.321 9.51C134.571 9.04 134.696 8.495 134.696 7.875ZM137.873 7.875C137.873 7.025 138.043 6.285 138.383 5.655C138.723 5.015 139.193 4.52 139.793 4.17C140.403 3.82 141.098 3.645 141.878 3.645C142.888 3.645 143.718 3.89 144.368 4.38C145.028 4.87 145.463 5.55 145.673 6.42H144.203C144.063 5.92 143.788 5.525 143.378 5.235C142.978 4.945 142.478 4.8 141.878 4.8C141.098 4.8 140.468 5.07 139.988 5.61C139.508 6.14 139.268 6.895 139.268 7.875C139.268 8.865 139.508 9.63 139.988 10.17C140.468 10.71 141.098 10.98 141.878 10.98C142.478 10.98 142.978 10.84 143.378 10.56C143.778 10.28 144.053 9.88 144.203 9.36H145.673C145.453 10.2 145.013 10.875 144.353 11.385C143.693 11.885 142.868 12.135 141.878 12.135C141.098 12.135 140.403 11.96 139.793 11.61C139.193 11.26 138.723 10.765 138.383 10.125C138.043 9.485 137.873 8.735 137.873 7.875ZM146.984 7.875C146.984 7.025 147.154 6.285 147.494 5.655C147.834 5.015 148.304 4.52 148.904 4.17C149.514 3.82 150.209 3.645 150.989 3.645C151.999 3.645 152.829 3.89 153.479 4.38C154.139 4.87 154.574 5.55 154.784 6.42H153.314C153.174 5.92 152.899 5.525 152.489 5.235C152.089 4.945 151.589 4.8 150.989 4.8C150.209 4.8 149.579 5.07 149.099 5.61C148.619 6.14 148.379 6.895 148.379 7.875C148.379 8.865 148.619 9.63 149.099 10.17C149.579 10.71 150.209 10.98 150.989 10.98C151.589 10.98 152.089 10.84 152.489 10.56C152.889 10.28 153.164 9.88 153.314 9.36H154.784C154.564 10.2 154.124 10.875 153.464 11.385C152.804 11.885 151.979 12.135 150.989 12.135C150.209 12.135 149.514 11.96 148.904 11.61C148.304 11.26 147.834 10.765 147.494 10.125C147.154 9.485 146.984 8.735 146.984 7.875ZM160.19 12.135C159.42 12.135 158.72 11.96 158.09 11.61C157.47 11.26 156.98 10.765 156.62 10.125C156.27 9.475 156.095 8.725 156.095 7.875C156.095 7.035 156.275 6.295 156.635 5.655C157.005 5.005 157.505 4.51 158.135 4.17C158.765 3.82 159.47 3.645 160.25 3.645C161.03 3.645 161.735 3.82 162.365 4.17C162.995 4.51 163.49 5 163.85 5.64C164.22 6.28 164.405 7.025 164.405 7.875C164.405 8.725 164.215 9.475 163.835 10.125C163.465 10.765 162.96 11.26 162.32 11.61C161.68 11.96 160.97 12.135 160.19 12.135ZM160.19 10.935C160.68 10.935 161.14 10.82 161.57 10.59C162 10.36 162.345 10.015 162.605 9.555C162.875 9.095 163.01 8.535 163.01 7.875C163.01 7.215 162.88 6.655 162.62 6.195C162.36 5.735 162.02 5.395 161.6 5.175C161.18 4.945 160.725 4.83 160.235 4.83C159.735 4.83 159.275 4.945 158.855 5.175C158.445 5.395 158.115 5.735 157.865 6.195C157.615 6.655 157.49 7.215 157.49 7.875C157.49 8.545 157.61 9.11 157.85 9.57C158.1 10.03 158.43 10.375 158.84 10.605C159.25 10.825 159.7 10.935 160.19 10.935ZM173.49 3.78V12H172.125V10.785C171.865 11.205 171.5 11.535 171.03 11.775C170.57 12.005 170.06 12.12 169.5 12.12C168.86 12.12 168.285 11.99 167.775 11.73C167.265 11.46 166.86 11.06 166.56 10.53C166.27 10 166.125 9.355 166.125 8.595V3.78H167.475V8.415C167.475 9.225 167.68 9.85 168.09 10.29C168.5 10.72 169.06 10.935 169.77 10.935C170.5 10.935 171.075 10.71 171.495 10.26C171.915 9.81 172.125 9.155 172.125 8.295V3.78H173.49ZM179.8 3.63C180.8 3.63 181.61 3.935 182.23 4.545C182.85 5.145 183.16 6.015 183.16 7.155V12H181.81V7.35C181.81 6.53 181.605 5.905 181.195 5.475C180.785 5.035 180.225 4.815 179.515 4.815C178.795 4.815 178.22 5.04 177.79 5.49C177.37 5.94 177.16 6.595 177.16 7.455V12H175.795V3.78H177.16V4.95C177.43 4.53 177.795 4.205 178.255 3.975C178.725 3.745 179.24 3.63 179.8 3.63ZM187.054 4.905V9.75C187.054 10.15 187.139 10.435 187.309 10.605C187.479 10.765 187.774 10.845 188.194 10.845H189.199V12H187.969C187.209 12 186.639 11.825 186.259 11.475C185.879 11.125 185.689 10.55 185.689 9.75V4.905H184.624V3.78H185.689V1.71H187.054V3.78H189.199V4.905H187.054ZM193.523 1.41C194.513 1.41 195.313 1.69 195.923 2.25C196.533 2.81 196.838 3.56 196.838 4.5C196.838 5.55 196.513 6.33 195.863 6.84C195.213 7.34 194.333 7.59 193.223 7.59L193.178 9.015H191.993L191.933 6.645H192.368C193.358 6.645 194.133 6.495 194.693 6.195C195.253 5.895 195.533 5.33 195.533 4.5C195.533 3.9 195.353 3.425 194.993 3.075C194.633 2.725 194.148 2.55 193.538 2.55C192.918 2.55 192.428 2.72 192.068 3.06C191.718 3.39 191.543 3.845 191.543 4.425H190.253C190.253 3.825 190.388 3.3 190.658 2.85C190.928 2.39 191.308 2.035 191.798 1.785C192.298 1.535 192.873 1.41 193.523 1.41ZM192.578 12.09C192.318 12.09 192.098 12 191.918 11.82C191.738 11.64 191.648 11.42 191.648 11.16C191.648 10.9 191.738 10.68 191.918 10.5C192.098 10.32 192.318 10.23 192.578 10.23C192.828 10.23 193.038 10.32 193.208 10.5C193.388 10.68 193.478 10.9 193.478 11.16C193.478 11.42 193.388 11.64 193.208 11.82C193.038 12 192.828 12.09 192.578 12.09Z" fill="#6A707C"/>
<path d="M204.083 10.89H207.743V12H202.718V1.545H204.083V10.89ZM212.778 12.135C212.008 12.135 211.308 11.96 210.678 11.61C210.058 11.26 209.568 10.765 209.208 10.125C208.858 9.475 208.683 8.725 208.683 7.875C208.683 7.035 208.863 6.295 209.223 5.655C209.593 5.005 210.093 4.51 210.723 4.17C211.353 3.82 212.058 3.645 212.838 3.645C213.618 3.645 214.323 3.82 214.953 4.17C215.583 4.51 216.078 5 216.438 5.64C216.808 6.28 216.993 7.025 216.993 7.875C216.993 8.725 216.803 9.475 216.423 10.125C216.053 10.765 215.548 11.26 214.908 11.61C214.268 11.96 213.558 12.135 212.778 12.135ZM212.778 10.935C213.268 10.935 213.728 10.82 214.158 10.59C214.588 10.36 214.933 10.015 215.193 9.555C215.463 9.095 215.598 8.535 215.598 7.875C215.598 7.215 215.468 6.655 215.208 6.195C214.948 5.735 214.608 5.395 214.188 5.175C213.768 4.945 213.313 4.83 212.823 4.83C212.323 4.83 211.863 4.945 211.443 5.175C211.033 5.395 210.703 5.735 210.453 6.195C210.203 6.655 210.078 7.215 210.078 7.875C210.078 8.545 210.198 9.11 210.438 9.57C210.688 10.03 211.018 10.375 211.428 10.605C211.838 10.825 212.288 10.935 212.778 10.935ZM222.178 3.645C222.888 3.645 223.508 3.8 224.038 4.11C224.578 4.42 224.978 4.81 225.238 5.28V3.78H226.618V12.18C226.618 12.93 226.458 13.595 226.138 14.175C225.818 14.765 225.358 15.225 224.758 15.555C224.168 15.885 223.478 16.05 222.688 16.05C221.608 16.05 220.708 15.795 219.988 15.285C219.268 14.775 218.843 14.08 218.713 13.2H220.063C220.213 13.7 220.523 14.1 220.993 14.4C221.463 14.71 222.028 14.865 222.688 14.865C223.438 14.865 224.048 14.63 224.518 14.16C224.998 13.69 225.238 13.03 225.238 12.18V10.455C224.968 10.935 224.568 11.335 224.038 11.655C223.508 11.975 222.888 12.135 222.178 12.135C221.448 12.135 220.783 11.955 220.183 11.595C219.593 11.235 219.128 10.73 218.788 10.08C218.448 9.43 218.278 8.69 218.278 7.86C218.278 7.02 218.448 6.285 218.788 5.655C219.128 5.015 219.593 4.52 220.183 4.17C220.783 3.82 221.448 3.645 222.178 3.645ZM225.238 7.875C225.238 7.255 225.113 6.715 224.863 6.255C224.613 5.795 224.273 5.445 223.843 5.205C223.423 4.955 222.958 4.83 222.448 4.83C221.938 4.83 221.473 4.95 221.053 5.19C220.633 5.43 220.298 5.78 220.048 6.24C219.798 6.7 219.673 7.24 219.673 7.86C219.673 8.49 219.798 9.04 220.048 9.51C220.298 9.97 220.633 10.325 221.053 10.575C221.473 10.815 221.938 10.935 222.448 10.935C222.958 10.935 223.423 10.815 223.843 10.575C224.273 10.325 224.613 9.97 224.863 9.51C225.113 9.04 225.238 8.495 225.238 7.875ZM229.63 2.445C229.37 2.445 229.15 2.355 228.97 2.175C228.79 1.995 228.7 1.775 228.7 1.515C228.7 1.255 228.79 1.035 228.97 0.855C229.15 0.674999 229.37 0.584999 229.63 0.584999C229.88 0.584999 230.09 0.674999 230.26 0.855C230.44 1.035 230.53 1.255 230.53 1.515C230.53 1.775 230.44 1.995 230.26 2.175C230.09 2.355 229.88 2.445 229.63 2.445ZM230.29 3.78V12H228.925V3.78H230.29ZM236.621 3.63C237.621 3.63 238.431 3.935 239.051 4.545C239.671 5.145 239.981 6.015 239.981 7.155V12H238.631V7.35C238.631 6.53 238.426 5.905 238.016 5.475C237.606 5.035 237.046 4.815 236.336 4.815C235.616 4.815 235.041 5.04 234.611 5.49C234.191 5.94 233.981 6.595 233.981 7.455V12H232.616V3.78H233.981V4.95C234.251 4.53 234.616 4.205 235.076 3.975C235.546 3.745 236.061 3.63 236.621 3.63ZM254.43 12H253.065L247.575 3.675V12H246.21V1.53H247.575L253.065 9.84V1.53H254.43V12ZM260.342 12.135C259.572 12.135 258.872 11.96 258.242 11.61C257.622 11.26 257.132 10.765 256.772 10.125C256.422 9.475 256.247 8.725 256.247 7.875C256.247 7.035 256.427 6.295 256.787 5.655C257.157 5.005 257.657 4.51 258.287 4.17C258.917 3.82 259.622 3.645 260.402 3.645C261.182 3.645 261.887 3.82 262.517 4.17C263.147 4.51 263.642 5 264.002 5.64C264.372 6.28 264.557 7.025 264.557 7.875C264.557 8.725 264.367 9.475 263.987 10.125C263.617 10.765 263.112 11.26 262.472 11.61C261.832 11.96 261.122 12.135 260.342 12.135ZM260.342 10.935C260.832 10.935 261.292 10.82 261.722 10.59C262.152 10.36 262.497 10.015 262.757 9.555C263.027 9.095 263.162 8.535 263.162 7.875C263.162 7.215 263.032 6.655 262.772 6.195C262.512 5.735 262.172 5.395 261.752 5.175C261.332 4.945 260.877 4.83 260.387 4.83C259.887 4.83 259.427 4.945 259.007 5.175C258.597 5.395 258.267 5.735 258.017 6.195C257.767 6.655 257.642 7.215 257.642 7.875C257.642 8.545 257.762 9.11 258.002 9.57C258.252 10.03 258.582 10.375 258.992 10.605C259.402 10.825 259.852 10.935 260.342 10.935ZM277.301 3.78L274.736 12H273.326L271.346 5.475L269.366 12H267.956L265.376 3.78H266.771L268.661 10.68L270.701 3.78H272.096L274.091 10.695L275.951 3.78H277.301Z" fill="#87B272"/>
</svg>
