<svg width="219" height="13" viewBox="0 0 219 13" fill="none" xmlns="http://www.w3.org/2000/svg">
<path d="M3.44613 1.545C4.58613 1.545 5.57113 1.76 6.40113 2.19C7.24113 2.61 7.88113 3.215 8.32113 4.005C8.77113 4.795 8.99613 5.725 8.99613 6.795C8.99613 7.865 8.77113 8.795 8.32113 9.585C7.88113 10.365 7.24113 10.965 6.40113 11.385C5.57113 11.795 4.58613 12 3.44613 12H0.191133V1.545H3.44613ZM3.44613 10.875C4.79613 10.875 5.82613 10.52 6.53613 9.81C7.24613 9.09 7.60113 8.085 7.60113 6.795C7.60113 5.495 7.24113 4.48 6.52113 3.75C5.81113 3.02 4.78613 2.655 3.44613 2.655H1.55613V10.875H3.44613ZM11.5016 2.445C11.2416 2.445 11.0216 2.355 10.8416 2.175C10.6616 1.995 10.5716 1.775 10.5716 1.515C10.5716 1.255 10.6616 1.035 10.8416 0.855C11.0216 0.674999 11.2416 0.584999 11.5016 0.584999C11.7516 0.584999 11.9616 0.674999 12.1316 0.855C12.3116 1.035 12.4016 1.255 12.4016 1.515C12.4016 1.775 12.3116 1.995 12.1316 2.175C11.9616 2.355 11.7516 2.445 11.5016 2.445ZM12.1616 3.78V12H10.7966V3.78H12.1616ZM13.978 7.86C13.978 7.02 14.148 6.285 14.488 5.655C14.828 5.015 15.293 4.52 15.883 4.17C16.483 3.82 17.153 3.645 17.893 3.645C18.533 3.645 19.128 3.795 19.678 4.095C20.228 4.385 20.648 4.77 20.938 5.25V0.9H22.318V12H20.938V10.455C20.668 10.945 20.268 11.35 19.738 11.67C19.208 11.98 18.588 12.135 17.878 12.135C17.148 12.135 16.483 11.955 15.883 11.595C15.293 11.235 14.828 10.73 14.488 10.08C14.148 9.43 13.978 8.69 13.978 7.86ZM20.938 7.875C20.938 7.255 20.813 6.715 20.563 6.255C20.313 5.795 19.973 5.445 19.543 5.205C19.123 4.955 18.658 4.83 18.148 4.83C17.638 4.83 17.173 4.95 16.753 5.19C16.333 5.43 15.998 5.78 15.748 6.24C15.498 6.7 15.373 7.24 15.373 7.86C15.373 8.49 15.498 9.04 15.748 9.51C15.998 9.97 16.333 10.325 16.753 10.575C17.173 10.815 17.638 10.935 18.148 10.935C18.658 10.935 19.123 10.815 19.543 10.575C19.973 10.325 20.313 9.97 20.563 9.51C20.813 9.04 20.938 8.495 20.938 7.875ZM28.6297 3.63C29.6297 3.63 30.4397 3.935 31.0597 4.545C31.6797 5.145 31.9897 6.015 31.9897 7.155V12H30.6397V7.35C30.6397 6.53 30.4347 5.905 30.0247 5.475C29.6147 5.035 29.0547 4.815 28.3447 4.815C27.6247 4.815 27.0497 5.04 26.6197 5.49C26.1997 5.94 25.9897 6.595 25.9897 7.455V12H24.6247V3.78H25.9897V4.95C26.2597 4.53 26.6247 4.205 27.0847 3.975C27.5547 3.745 28.0697 3.63 28.6297 3.63ZM34.4295 1.545H35.9445L34.5045 4.95H33.5445L34.4295 1.545ZM39.1657 4.905V9.75C39.1657 10.15 39.2507 10.435 39.4207 10.605C39.5907 10.765 39.8857 10.845 40.3057 10.845H41.3107V12H40.0807C39.3207 12 38.7507 11.825 38.3707 11.475C37.9907 11.125 37.8007 10.55 37.8007 9.75V4.905H36.7357V3.78H37.8007V1.71H39.1657V3.78H41.3107V4.905H39.1657ZM48.3286 5.115C48.5686 4.645 48.9086 4.28 49.3486 4.02C49.7986 3.76 50.3436 3.63 50.9836 3.63V5.04H50.6236C49.0936 5.04 48.3286 5.87 48.3286 7.53V12H46.9636V3.78H48.3286V5.115ZM60.0593 7.575C60.0593 7.835 60.0443 8.11 60.0143 8.4H53.4443C53.4943 9.21 53.7693 9.845 54.2693 10.305C54.7793 10.755 55.3943 10.98 56.1143 10.98C56.7043 10.98 57.1943 10.845 57.5843 10.575C57.9843 10.295 58.2643 9.925 58.4243 9.465H59.8943C59.6743 10.255 59.2343 10.9 58.5743 11.4C57.9143 11.89 57.0943 12.135 56.1143 12.135C55.3343 12.135 54.6343 11.96 54.0143 11.61C53.4043 11.26 52.9243 10.765 52.5743 10.125C52.2243 9.475 52.0493 8.725 52.0493 7.875C52.0493 7.025 52.2193 6.28 52.5593 5.64C52.8993 5 53.3743 4.51 53.9843 4.17C54.6043 3.82 55.3143 3.645 56.1143 3.645C56.8943 3.645 57.5843 3.815 58.1843 4.155C58.7843 4.495 59.2443 4.965 59.5643 5.565C59.8943 6.155 60.0593 6.825 60.0593 7.575ZM58.6493 7.29C58.6493 6.77 58.5343 6.325 58.3043 5.955C58.0743 5.575 57.7593 5.29 57.3593 5.1C56.9693 4.9 56.5343 4.8 56.0543 4.8C55.3643 4.8 54.7743 5.02 54.2843 5.46C53.8043 5.9 53.5293 6.51 53.4593 7.29H58.6493ZM61.3511 7.875C61.3511 7.025 61.5211 6.285 61.8611 5.655C62.2011 5.015 62.6711 4.52 63.2711 4.17C63.8811 3.82 64.5761 3.645 65.3561 3.645C66.3661 3.645 67.1961 3.89 67.8461 4.38C68.5061 4.87 68.9411 5.55 69.1511 6.42H67.6811C67.5411 5.92 67.2661 5.525 66.8561 5.235C66.4561 4.945 65.9561 4.8 65.3561 4.8C64.5761 4.8 63.9461 5.07 63.4661 5.61C62.9861 6.14 62.7461 6.895 62.7461 7.875C62.7461 8.865 62.9861 9.63 63.4661 10.17C63.9461 10.71 64.5761 10.98 65.3561 10.98C65.9561 10.98 66.4561 10.84 66.8561 10.56C67.2561 10.28 67.5311 9.88 67.6811 9.36H69.1511C68.9311 10.2 68.4911 10.875 67.8311 11.385C67.1711 11.885 66.3461 12.135 65.3561 12.135C64.5761 12.135 63.8811 11.96 63.2711 11.61C62.6711 11.26 62.2011 10.765 61.8611 10.125C61.5211 9.485 61.3511 8.735 61.3511 7.875ZM78.4724 7.575C78.4724 7.835 78.4574 8.11 78.4274 8.4H71.8574C71.9074 9.21 72.1824 9.845 72.6824 10.305C73.1924 10.755 73.8074 10.98 74.5274 10.98C75.1174 10.98 75.6074 10.845 75.9974 10.575C76.3974 10.295 76.6774 9.925 76.8374 9.465H78.3074C78.0874 10.255 77.6474 10.9 76.9874 11.4C76.3274 11.89 75.5074 12.135 74.5274 12.135C73.7474 12.135 73.0474 11.96 72.4274 11.61C71.8174 11.26 71.3374 10.765 70.9874 10.125C70.6374 9.475 70.4624 8.725 70.4624 7.875C70.4624 7.025 70.6324 6.28 70.9724 5.64C71.3124 5 71.7874 4.51 72.3974 4.17C73.0174 3.82 73.7274 3.645 74.5274 3.645C75.3074 3.645 75.9974 3.815 76.5974 4.155C77.1974 4.495 77.6574 4.965 77.9774 5.565C78.3074 6.155 78.4724 6.825 78.4724 7.575ZM77.0624 7.29C77.0624 6.77 76.9474 6.325 76.7174 5.955C76.4874 5.575 76.1724 5.29 75.7724 5.1C75.3824 4.9 74.9474 4.8 74.4674 4.8C73.7774 4.8 73.1874 5.02 72.6974 5.46C72.2174 5.9 71.9424 6.51 71.8724 7.29H77.0624ZM80.9791 2.445C80.7191 2.445 80.4991 2.355 80.3191 2.175C80.1391 1.995 80.0491 1.775 80.0491 1.515C80.0491 1.255 80.1391 1.035 80.3191 0.855C80.4991 0.674999 80.7191 0.584999 80.9791 0.584999C81.2291 0.584999 81.4391 0.674999 81.6091 0.855C81.7891 1.035 81.8791 1.255 81.8791 1.515C81.8791 1.775 81.7891 1.995 81.6091 2.175C81.4391 2.355 81.2291 2.445 80.9791 2.445ZM81.6391 3.78V12H80.2741V3.78H81.6391ZM87.0255 10.74L89.5755 3.78H91.0305L87.8055 12H86.2155L82.9905 3.78H84.4605L87.0255 10.74ZM99.8738 7.575C99.8738 7.835 99.8588 8.11 99.8288 8.4H93.2588C93.3088 9.21 93.5838 9.845 94.0838 10.305C94.5938 10.755 95.2088 10.98 95.9288 10.98C96.5188 10.98 97.0088 10.845 97.3988 10.575C97.7988 10.295 98.0788 9.925 98.2388 9.465H99.7088C99.4888 10.255 99.0488 10.9 98.3888 11.4C97.7288 11.89 96.9088 12.135 95.9288 12.135C95.1488 12.135 94.4488 11.96 93.8288 11.61C93.2188 11.26 92.7388 10.765 92.3888 10.125C92.0388 9.475 91.8638 8.725 91.8638 7.875C91.8638 7.025 92.0338 6.28 92.3738 5.64C92.7138 5 93.1888 4.51 93.7988 4.17C94.4188 3.82 95.1288 3.645 95.9288 3.645C96.7088 3.645 97.3988 3.815 97.9988 4.155C98.5988 4.495 99.0588 4.965 99.3788 5.565C99.7088 6.155 99.8738 6.825 99.8738 7.575ZM98.4638 7.29C98.4638 6.77 98.3488 6.325 98.1188 5.955C97.8888 5.575 97.5738 5.29 97.1738 5.1C96.7838 4.9 96.3488 4.8 95.8688 4.8C95.1788 4.8 94.5888 5.02 94.0988 5.46C93.6188 5.9 93.3438 6.51 93.2738 7.29H98.4638ZM101.166 7.86C101.166 7.02 101.336 6.285 101.676 5.655C102.016 5.015 102.481 4.52 103.071 4.17C103.671 3.82 104.341 3.645 105.081 3.645C105.721 3.645 106.316 3.795 106.866 4.095C107.416 4.385 107.836 4.77 108.126 5.25V0.9H109.506V12H108.126V10.455C107.856 10.945 107.456 11.35 106.926 11.67C106.396 11.98 105.776 12.135 105.066 12.135C104.336 12.135 103.671 11.955 103.071 11.595C102.481 11.235 102.016 10.73 101.676 10.08C101.336 9.43 101.166 8.69 101.166 7.86ZM108.126 7.875C108.126 7.255 108.001 6.715 107.751 6.255C107.501 5.795 107.161 5.445 106.731 5.205C106.311 4.955 105.846 4.83 105.336 4.83C104.826 4.83 104.361 4.95 103.941 5.19C103.521 5.43 103.186 5.78 102.936 6.24C102.686 6.7 102.561 7.24 102.561 7.86C102.561 8.49 102.686 9.04 102.936 9.51C103.186 9.97 103.521 10.325 103.941 10.575C104.361 10.815 104.826 10.935 105.336 10.935C105.846 10.935 106.311 10.815 106.731 10.575C107.161 10.325 107.501 9.97 107.751 9.51C108.001 9.04 108.126 8.495 108.126 7.875ZM115.301 7.875C115.301 7.025 115.471 6.285 115.811 5.655C116.151 5.015 116.621 4.52 117.221 4.17C117.831 3.82 118.526 3.645 119.306 3.645C120.316 3.645 121.146 3.89 121.796 4.38C122.456 4.87 122.891 5.55 123.101 6.42H121.631C121.491 5.92 121.216 5.525 120.806 5.235C120.406 4.945 119.906 4.8 119.306 4.8C118.526 4.8 117.896 5.07 117.416 5.61C116.936 6.14 116.696 6.895 116.696 7.875C116.696 8.865 116.936 9.63 117.416 10.17C117.896 10.71 118.526 10.98 119.306 10.98C119.906 10.98 120.406 10.84 120.806 10.56C121.206 10.28 121.481 9.88 121.631 9.36H123.101C122.881 10.2 122.441 10.875 121.781 11.385C121.121 11.885 120.296 12.135 119.306 12.135C118.526 12.135 117.831 11.96 117.221 11.61C116.621 11.26 116.151 10.765 115.811 10.125C115.471 9.485 115.301 8.735 115.301 7.875ZM128.508 12.135C127.738 12.135 127.038 11.96 126.408 11.61C125.788 11.26 125.298 10.765 124.938 10.125C124.588 9.475 124.413 8.725 124.413 7.875C124.413 7.035 124.593 6.295 124.953 5.655C125.323 5.005 125.823 4.51 126.453 4.17C127.083 3.82 127.788 3.645 128.568 3.645C129.348 3.645 130.053 3.82 130.683 4.17C131.313 4.51 131.808 5 132.168 5.64C132.538 6.28 132.723 7.025 132.723 7.875C132.723 8.725 132.533 9.475 132.153 10.125C131.783 10.765 131.278 11.26 130.638 11.61C129.998 11.96 129.288 12.135 128.508 12.135ZM128.508 10.935C128.998 10.935 129.458 10.82 129.888 10.59C130.318 10.36 130.663 10.015 130.923 9.555C131.193 9.095 131.328 8.535 131.328 7.875C131.328 7.215 131.198 6.655 130.938 6.195C130.678 5.735 130.338 5.395 129.918 5.175C129.498 4.945 129.043 4.83 128.553 4.83C128.053 4.83 127.593 4.945 127.173 5.175C126.763 5.395 126.433 5.735 126.183 6.195C125.933 6.655 125.808 7.215 125.808 7.875C125.808 8.545 125.928 9.11 126.168 9.57C126.418 10.03 126.748 10.375 127.158 10.605C127.568 10.825 128.018 10.935 128.508 10.935ZM134.007 7.86C134.007 7.02 134.177 6.285 134.517 5.655C134.857 5.015 135.322 4.52 135.912 4.17C136.512 3.82 137.182 3.645 137.922 3.645C138.562 3.645 139.157 3.795 139.707 4.095C140.257 4.385 140.677 4.77 140.967 5.25V0.9H142.347V12H140.967V10.455C140.697 10.945 140.297 11.35 139.767 11.67C139.237 11.98 138.617 12.135 137.907 12.135C137.177 12.135 136.512 11.955 135.912 11.595C135.322 11.235 134.857 10.73 134.517 10.08C134.177 9.43 134.007 8.69 134.007 7.86ZM140.967 7.875C140.967 7.255 140.842 6.715 140.592 6.255C140.342 5.795 140.002 5.445 139.572 5.205C139.152 4.955 138.687 4.83 138.177 4.83C137.667 4.83 137.202 4.95 136.782 5.19C136.362 5.43 136.027 5.78 135.777 6.24C135.527 6.7 135.402 7.24 135.402 7.86C135.402 8.49 135.527 9.04 135.777 9.51C136.027 9.97 136.362 10.325 136.782 10.575C137.202 10.815 137.667 10.935 138.177 10.935C138.687 10.935 139.152 10.815 139.572 10.575C140.002 10.325 140.342 9.97 140.592 9.51C140.842 9.04 140.967 8.495 140.967 7.875ZM152.154 7.575C152.154 7.835 152.139 8.11 152.109 8.4H145.539C145.589 9.21 145.864 9.845 146.364 10.305C146.874 10.755 147.489 10.98 148.209 10.98C148.799 10.98 149.289 10.845 149.679 10.575C150.079 10.295 150.359 9.925 150.519 9.465H151.989C151.769 10.255 151.329 10.9 150.669 11.4C150.009 11.89 149.189 12.135 148.209 12.135C147.429 12.135 146.729 11.96 146.109 11.61C145.499 11.26 145.019 10.765 144.669 10.125C144.319 9.475 144.144 8.725 144.144 7.875C144.144 7.025 144.314 6.28 144.654 5.64C144.994 5 145.469 4.51 146.079 4.17C146.699 3.82 147.409 3.645 148.209 3.645C148.989 3.645 149.679 3.815 150.279 4.155C150.879 4.495 151.339 4.965 151.659 5.565C151.989 6.155 152.154 6.825 152.154 7.575ZM150.744 7.29C150.744 6.77 150.629 6.325 150.399 5.955C150.169 5.575 149.854 5.29 149.454 5.1C149.064 4.9 148.629 4.8 148.149 4.8C147.459 4.8 146.869 5.02 146.379 5.46C145.899 5.9 145.624 6.51 145.554 7.29H150.744ZM156.626 1.41C157.616 1.41 158.416 1.69 159.026 2.25C159.636 2.81 159.941 3.56 159.941 4.5C159.941 5.55 159.616 6.33 158.966 6.84C158.316 7.34 157.436 7.59 156.326 7.59L156.281 9.015H155.096L155.036 6.645H155.471C156.461 6.645 157.236 6.495 157.796 6.195C158.356 5.895 158.636 5.33 158.636 4.5C158.636 3.9 158.456 3.425 158.096 3.075C157.736 2.725 157.251 2.55 156.641 2.55C156.021 2.55 155.531 2.72 155.171 3.06C154.821 3.39 154.646 3.845 154.646 4.425H153.356C153.356 3.825 153.491 3.3 153.761 2.85C154.031 2.39 154.411 2.035 154.901 1.785C155.401 1.535 155.976 1.41 156.626 1.41ZM155.681 12.09C155.421 12.09 155.201 12 155.021 11.82C154.841 11.64 154.751 11.42 154.751 11.16C154.751 10.9 154.841 10.68 155.021 10.5C155.201 10.32 155.421 10.23 155.681 10.23C155.931 10.23 156.141 10.32 156.311 10.5C156.491 10.68 156.581 10.9 156.581 11.16C156.581 11.42 156.491 11.64 156.311 11.82C156.141 12 155.931 12.09 155.681 12.09Z" fill="#6A707C"/>
<path d="M171.326 12L168.836 7.725H167.186V12H165.821V1.545H169.196C169.986 1.545 170.651 1.68 171.191 1.95C171.741 2.22 172.151 2.585 172.421 3.045C172.691 3.505 172.826 4.03 172.826 4.62C172.826 5.34 172.616 5.975 172.196 6.525C171.786 7.075 171.166 7.44 170.336 7.62L172.961 12H171.326ZM167.186 6.63H169.196C169.936 6.63 170.491 6.45 170.861 6.09C171.231 5.72 171.416 5.23 171.416 4.62C171.416 4 171.231 3.52 170.861 3.18C170.501 2.84 169.946 2.67 169.196 2.67H167.186V6.63ZM182.447 7.575C182.447 7.835 182.432 8.11 182.402 8.4H175.832C175.882 9.21 176.157 9.845 176.657 10.305C177.167 10.755 177.782 10.98 178.502 10.98C179.092 10.98 179.582 10.845 179.972 10.575C180.372 10.295 180.652 9.925 180.812 9.465H182.282C182.062 10.255 181.622 10.9 180.962 11.4C180.302 11.89 179.482 12.135 178.502 12.135C177.722 12.135 177.022 11.96 176.402 11.61C175.792 11.26 175.312 10.765 174.962 10.125C174.612 9.475 174.437 8.725 174.437 7.875C174.437 7.025 174.607 6.28 174.947 5.64C175.287 5 175.762 4.51 176.372 4.17C176.992 3.82 177.702 3.645 178.502 3.645C179.282 3.645 179.972 3.815 180.572 4.155C181.172 4.495 181.632 4.965 181.952 5.565C182.282 6.155 182.447 6.825 182.447 7.575ZM181.037 7.29C181.037 6.77 180.922 6.325 180.692 5.955C180.462 5.575 180.147 5.29 179.747 5.1C179.357 4.9 178.922 4.8 178.442 4.8C177.752 4.8 177.162 5.02 176.672 5.46C176.192 5.9 175.917 6.51 175.847 7.29H181.037ZM187.159 12.135C186.529 12.135 185.964 12.03 185.464 11.82C184.964 11.6 184.569 11.3 184.279 10.92C183.989 10.53 183.829 10.085 183.799 9.585H185.209C185.249 9.995 185.439 10.33 185.779 10.59C186.129 10.85 186.584 10.98 187.144 10.98C187.664 10.98 188.074 10.865 188.374 10.635C188.674 10.405 188.824 10.115 188.824 9.765C188.824 9.405 188.664 9.14 188.344 8.97C188.024 8.79 187.529 8.615 186.859 8.445C186.249 8.285 185.749 8.125 185.359 7.965C184.979 7.795 184.649 7.55 184.369 7.23C184.099 6.9 183.964 6.47 183.964 5.94C183.964 5.52 184.089 5.135 184.339 4.785C184.589 4.435 184.944 4.16 185.404 3.96C185.864 3.75 186.389 3.645 186.979 3.645C187.889 3.645 188.624 3.875 189.184 4.335C189.744 4.795 190.044 5.425 190.084 6.225H188.719C188.689 5.795 188.514 5.45 188.194 5.19C187.884 4.93 187.464 4.8 186.934 4.8C186.444 4.8 186.054 4.905 185.764 5.115C185.474 5.325 185.329 5.6 185.329 5.94C185.329 6.21 185.414 6.435 185.584 6.615C185.764 6.785 185.984 6.925 186.244 7.035C186.514 7.135 186.884 7.25 187.354 7.38C187.944 7.54 188.424 7.7 188.794 7.86C189.164 8.01 189.479 8.24 189.739 8.55C190.009 8.86 190.149 9.265 190.159 9.765C190.159 10.215 190.034 10.62 189.784 10.98C189.534 11.34 189.179 11.625 188.719 11.835C188.269 12.035 187.749 12.135 187.159 12.135ZM199.586 7.575C199.586 7.835 199.571 8.11 199.541 8.4H192.971C193.021 9.21 193.296 9.845 193.796 10.305C194.306 10.755 194.921 10.98 195.641 10.98C196.231 10.98 196.721 10.845 197.111 10.575C197.511 10.295 197.791 9.925 197.951 9.465H199.421C199.201 10.255 198.761 10.9 198.101 11.4C197.441 11.89 196.621 12.135 195.641 12.135C194.861 12.135 194.161 11.96 193.541 11.61C192.931 11.26 192.451 10.765 192.101 10.125C191.751 9.475 191.576 8.725 191.576 7.875C191.576 7.025 191.746 6.28 192.086 5.64C192.426 5 192.901 4.51 193.511 4.17C194.131 3.82 194.841 3.645 195.641 3.645C196.421 3.645 197.111 3.815 197.711 4.155C198.311 4.495 198.771 4.965 199.091 5.565C199.421 6.155 199.586 6.825 199.586 7.575ZM198.176 7.29C198.176 6.77 198.061 6.325 197.831 5.955C197.601 5.575 197.286 5.29 196.886 5.1C196.496 4.9 196.061 4.8 195.581 4.8C194.891 4.8 194.301 5.02 193.811 5.46C193.331 5.9 193.056 6.51 192.986 7.29H198.176ZM205.392 3.63C206.392 3.63 207.202 3.935 207.822 4.545C208.442 5.145 208.752 6.015 208.752 7.155V12H207.402V7.35C207.402 6.53 207.197 5.905 206.787 5.475C206.377 5.035 205.817 4.815 205.107 4.815C204.387 4.815 203.812 5.04 203.382 5.49C202.962 5.94 202.752 6.595 202.752 7.455V12H201.387V3.78H202.752V4.95C203.022 4.53 203.387 4.205 203.847 3.975C204.317 3.745 204.832 3.63 205.392 3.63ZM210.472 7.86C210.472 7.02 210.642 6.285 210.982 5.655C211.322 5.015 211.787 4.52 212.377 4.17C212.977 3.82 213.647 3.645 214.387 3.645C215.027 3.645 215.622 3.795 216.172 4.095C216.722 4.385 217.142 4.77 217.432 5.25V0.9H218.812V12H217.432V10.455C217.162 10.945 216.762 11.35 216.232 11.67C215.702 11.98 215.082 12.135 214.372 12.135C213.642 12.135 212.977 11.955 212.377 11.595C211.787 11.235 211.322 10.73 210.982 10.08C210.642 9.43 210.472 8.69 210.472 7.86ZM217.432 7.875C217.432 7.255 217.307 6.715 217.057 6.255C216.807 5.795 216.467 5.445 216.037 5.205C215.617 4.955 215.152 4.83 214.642 4.83C214.132 4.83 213.667 4.95 213.247 5.19C212.827 5.43 212.492 5.78 212.242 6.24C211.992 6.7 211.867 7.24 211.867 7.86C211.867 8.49 211.992 9.04 212.242 9.51C212.492 9.97 212.827 10.325 213.247 10.575C213.667 10.815 214.132 10.935 214.642 10.935C215.152 10.935 215.617 10.815 216.037 10.575C216.467 10.325 216.807 9.97 217.057 9.51C217.307 9.04 217.432 8.495 217.432 7.875Z" fill="#87B272"/>
</svg>
