<svg width="279" height="17" viewBox="0 0 279 17" fill="none" xmlns="http://www.w3.org/2000/svg">
<path d="M3.86898 1.545C5.00898 1.545 5.99398 1.76 6.82398 2.19C7.66398 2.61 8.30398 3.215 8.74398 4.005C9.19398 4.795 9.41898 5.725 9.41898 6.795C9.41898 7.865 9.19398 8.795 8.74398 9.585C8.30398 10.365 7.66398 10.965 6.82398 11.385C5.99398 11.795 5.00898 12 3.86898 12H0.613984V1.545H3.86898ZM3.86898 10.875C5.21898 10.875 6.24898 10.52 6.95898 9.81C7.66898 9.09 8.02398 8.085 8.02398 6.795C8.02398 5.495 7.66398 4.48 6.94398 3.75C6.23398 3.02 5.20898 2.655 3.86898 2.655H1.97898V10.875H3.86898ZM14.8045 12.135C14.0345 12.135 13.3345 11.96 12.7045 11.61C12.0845 11.26 11.5945 10.765 11.2345 10.125C10.8845 9.475 10.7095 8.725 10.7095 7.875C10.7095 7.035 10.8895 6.295 11.2495 5.655C11.6195 5.005 12.1195 4.51 12.7495 4.17C13.3795 3.82 14.0845 3.645 14.8645 3.645C15.6445 3.645 16.3495 3.82 16.9795 4.17C17.6095 4.51 18.1045 5 18.4645 5.64C18.8345 6.28 19.0195 7.025 19.0195 7.875C19.0195 8.725 18.8295 9.475 18.4495 10.125C18.0795 10.765 17.5745 11.26 16.9345 11.61C16.2945 11.96 15.5845 12.135 14.8045 12.135ZM14.8045 10.935C15.2945 10.935 15.7545 10.82 16.1845 10.59C16.6145 10.36 16.9595 10.015 17.2195 9.555C17.4895 9.095 17.6245 8.535 17.6245 7.875C17.6245 7.215 17.4945 6.655 17.2345 6.195C16.9745 5.735 16.6345 5.395 16.2145 5.175C15.7945 4.945 15.3395 4.83 14.8495 4.83C14.3495 4.83 13.8895 4.945 13.4695 5.175C13.0595 5.395 12.7295 5.735 12.4795 6.195C12.2295 6.655 12.1045 7.215 12.1045 7.875C12.1045 8.545 12.2245 9.11 12.4645 9.57C12.7145 10.03 13.0445 10.375 13.4545 10.605C13.8645 10.825 14.3145 10.935 14.8045 10.935ZM24.8192 3.63C25.8192 3.63 26.6292 3.935 27.2492 4.545C27.8692 5.145 28.1792 6.015 28.1792 7.155V12H26.8292V7.35C26.8292 6.53 26.6242 5.905 26.2142 5.475C25.8042 5.035 25.2442 4.815 24.5342 4.815C23.8142 4.815 23.2392 5.04 22.8092 5.49C22.3892 5.94 22.1792 6.595 22.1792 7.455V12H20.8142V3.78H22.1792V4.95C22.4492 4.53 22.8142 4.205 23.2742 3.975C23.7442 3.745 24.2592 3.63 24.8192 3.63ZM30.6189 1.545H32.1339L30.6939 4.95H29.7339L30.6189 1.545ZM35.3552 4.905V9.75C35.3552 10.15 35.4402 10.435 35.6102 10.605C35.7802 10.765 36.0752 10.845 36.4952 10.845H37.5002V12H36.2702C35.5102 12 34.9402 11.825 34.5602 11.475C34.1802 11.125 33.9902 10.55 33.9902 9.75V4.905H32.9252V3.78H33.9902V1.71H35.3552V3.78H37.5002V4.905H35.3552ZM47.233 3.63C47.853 3.63 48.413 3.765 48.913 4.035C49.413 4.295 49.803 4.69 50.083 5.22C50.373 5.75 50.518 6.395 50.518 7.155V12H49.168V7.35C49.168 6.53 48.963 5.905 48.553 5.475C48.143 5.035 47.583 4.815 46.873 4.815C46.153 4.815 45.578 5.04 45.148 5.49C44.728 5.94 44.518 6.595 44.518 7.455V12H43.153V0.9H44.518V4.95C44.788 4.53 45.158 4.205 45.628 3.975C46.108 3.745 46.643 3.63 47.233 3.63ZM52.2378 7.86C52.2378 7.02 52.4078 6.285 52.7478 5.655C53.0878 5.015 53.5528 4.52 54.1428 4.17C54.7428 3.82 55.4078 3.645 56.1378 3.645C56.8578 3.645 57.4828 3.8 58.0128 4.11C58.5428 4.42 58.9378 4.81 59.1978 5.28V3.78H60.5778V12H59.1978V10.47C58.9278 10.95 58.5228 11.35 57.9828 11.67C57.4528 11.98 56.8328 12.135 56.1228 12.135C55.3928 12.135 54.7328 11.955 54.1428 11.595C53.5528 11.235 53.0878 10.73 52.7478 10.08C52.4078 9.43 52.2378 8.69 52.2378 7.86ZM59.1978 7.875C59.1978 7.255 59.0728 6.715 58.8228 6.255C58.5728 5.795 58.2328 5.445 57.8028 5.205C57.3828 4.955 56.9178 4.83 56.4078 4.83C55.8978 4.83 55.4328 4.95 55.0128 5.19C54.5928 5.43 54.2578 5.78 54.0078 6.24C53.7578 6.7 53.6328 7.24 53.6328 7.86C53.6328 8.49 53.7578 9.04 54.0078 9.51C54.2578 9.97 54.5928 10.325 55.0128 10.575C55.4328 10.815 55.8978 10.935 56.4078 10.935C56.9178 10.935 57.3828 10.815 57.8028 10.575C58.2328 10.325 58.5728 9.97 58.8228 9.51C59.0728 9.04 59.1978 8.495 59.1978 7.875ZM65.9445 10.74L68.4945 3.78H69.9495L66.7245 12H65.1345L61.9095 3.78H63.3795L65.9445 10.74ZM78.7927 7.575C78.7927 7.835 78.7777 8.11 78.7477 8.4H72.1777C72.2277 9.21 72.5027 9.845 73.0027 10.305C73.5127 10.755 74.1277 10.98 74.8477 10.98C75.4377 10.98 75.9277 10.845 76.3177 10.575C76.7177 10.295 76.9977 9.925 77.1577 9.465H78.6277C78.4077 10.255 77.9677 10.9 77.3077 11.4C76.6477 11.89 75.8277 12.135 74.8477 12.135C74.0677 12.135 73.3677 11.96 72.7477 11.61C72.1377 11.26 71.6577 10.765 71.3077 10.125C70.9577 9.475 70.7827 8.725 70.7827 7.875C70.7827 7.025 70.9527 6.28 71.2927 5.64C71.6327 5 72.1077 4.51 72.7177 4.17C73.3377 3.82 74.0477 3.645 74.8477 3.645C75.6277 3.645 76.3177 3.815 76.9177 4.155C77.5177 4.495 77.9777 4.965 78.2977 5.565C78.6277 6.155 78.7927 6.825 78.7927 7.575ZM77.3827 7.29C77.3827 6.77 77.2677 6.325 77.0377 5.955C76.8077 5.575 76.4927 5.29 76.0927 5.1C75.7027 4.9 75.2677 4.8 74.7877 4.8C74.0977 4.8 73.5077 5.02 73.0177 5.46C72.5377 5.9 72.2627 6.51 72.1927 7.29H77.3827ZM84.0835 7.86C84.0835 7.02 84.2535 6.285 84.5935 5.655C84.9335 5.015 85.3985 4.52 85.9885 4.17C86.5885 3.82 87.2535 3.645 87.9835 3.645C88.7035 3.645 89.3285 3.8 89.8585 4.11C90.3885 4.42 90.7835 4.81 91.0435 5.28V3.78H92.4235V12H91.0435V10.47C90.7735 10.95 90.3685 11.35 89.8285 11.67C89.2985 11.98 88.6785 12.135 87.9685 12.135C87.2385 12.135 86.5785 11.955 85.9885 11.595C85.3985 11.235 84.9335 10.73 84.5935 10.08C84.2535 9.43 84.0835 8.69 84.0835 7.86ZM91.0435 7.875C91.0435 7.255 90.9185 6.715 90.6685 6.255C90.4185 5.795 90.0785 5.445 89.6485 5.205C89.2285 4.955 88.7635 4.83 88.2535 4.83C87.7435 4.83 87.2785 4.95 86.8585 5.19C86.4385 5.43 86.1035 5.78 85.8535 6.24C85.6035 6.7 85.4785 7.24 85.4785 7.86C85.4785 8.49 85.6035 9.04 85.8535 9.51C86.1035 9.97 86.4385 10.325 86.8585 10.575C87.2785 10.815 87.7435 10.935 88.2535 10.935C88.7635 10.935 89.2285 10.815 89.6485 10.575C90.0785 10.325 90.4185 9.97 90.6685 9.51C90.9185 9.04 91.0435 8.495 91.0435 7.875ZM98.7352 3.63C99.7352 3.63 100.545 3.935 101.165 4.545C101.785 5.145 102.095 6.015 102.095 7.155V12H100.745V7.35C100.745 6.53 100.54 5.905 100.13 5.475C99.7202 5.035 99.1602 4.815 98.4502 4.815C97.7302 4.815 97.1552 5.04 96.7252 5.49C96.3052 5.94 96.0952 6.595 96.0952 7.455V12H94.7302V3.78H96.0952V4.95C96.3652 4.53 96.7302 4.205 97.1902 3.975C97.6602 3.745 98.1752 3.63 98.7352 3.63ZM107.814 7.86C107.814 7.02 107.984 6.285 108.324 5.655C108.664 5.015 109.129 4.52 109.719 4.17C110.319 3.82 110.984 3.645 111.714 3.645C112.434 3.645 113.059 3.8 113.589 4.11C114.119 4.42 114.514 4.81 114.774 5.28V3.78H116.154V12H114.774V10.47C114.504 10.95 114.099 11.35 113.559 11.67C113.029 11.98 112.409 12.135 111.699 12.135C110.969 12.135 110.309 11.955 109.719 11.595C109.129 11.235 108.664 10.73 108.324 10.08C107.984 9.43 107.814 8.69 107.814 7.86ZM114.774 7.875C114.774 7.255 114.649 6.715 114.399 6.255C114.149 5.795 113.809 5.445 113.379 5.205C112.959 4.955 112.494 4.83 111.984 4.83C111.474 4.83 111.009 4.95 110.589 5.19C110.169 5.43 109.834 5.78 109.584 6.24C109.334 6.7 109.209 7.24 109.209 7.86C109.209 8.49 109.334 9.04 109.584 9.51C109.834 9.97 110.169 10.325 110.589 10.575C111.009 10.815 111.474 10.935 111.984 10.935C112.494 10.935 112.959 10.815 113.379 10.575C113.809 10.325 114.149 9.97 114.399 9.51C114.649 9.04 114.774 8.495 114.774 7.875ZM117.951 7.875C117.951 7.025 118.121 6.285 118.461 5.655C118.801 5.015 119.271 4.52 119.871 4.17C120.481 3.82 121.176 3.645 121.956 3.645C122.966 3.645 123.796 3.89 124.446 4.38C125.106 4.87 125.541 5.55 125.751 6.42H124.281C124.141 5.92 123.866 5.525 123.456 5.235C123.056 4.945 122.556 4.8 121.956 4.8C121.176 4.8 120.546 5.07 120.066 5.61C119.586 6.14 119.346 6.895 119.346 7.875C119.346 8.865 119.586 9.63 120.066 10.17C120.546 10.71 121.176 10.98 121.956 10.98C122.556 10.98 123.056 10.84 123.456 10.56C123.856 10.28 124.131 9.88 124.281 9.36H125.751C125.531 10.2 125.091 10.875 124.431 11.385C123.771 11.885 122.946 12.135 121.956 12.135C121.176 12.135 120.481 11.96 119.871 11.61C119.271 11.26 118.801 10.765 118.461 10.125C118.121 9.485 117.951 8.735 117.951 7.875ZM127.062 7.875C127.062 7.025 127.232 6.285 127.572 5.655C127.912 5.015 128.382 4.52 128.982 4.17C129.592 3.82 130.287 3.645 131.067 3.645C132.077 3.645 132.907 3.89 133.557 4.38C134.217 4.87 134.652 5.55 134.862 6.42H133.392C133.252 5.92 132.977 5.525 132.567 5.235C132.167 4.945 131.667 4.8 131.067 4.8C130.287 4.8 129.657 5.07 129.177 5.61C128.697 6.14 128.457 6.895 128.457 7.875C128.457 8.865 128.697 9.63 129.177 10.17C129.657 10.71 130.287 10.98 131.067 10.98C131.667 10.98 132.167 10.84 132.567 10.56C132.967 10.28 133.242 9.88 133.392 9.36H134.862C134.642 10.2 134.202 10.875 133.542 11.385C132.882 11.885 132.057 12.135 131.067 12.135C130.287 12.135 129.592 11.96 128.982 11.61C128.382 11.26 127.912 10.765 127.572 10.125C127.232 9.485 127.062 8.735 127.062 7.875ZM140.268 12.135C139.498 12.135 138.798 11.96 138.168 11.61C137.548 11.26 137.058 10.765 136.698 10.125C136.348 9.475 136.173 8.725 136.173 7.875C136.173 7.035 136.353 6.295 136.713 5.655C137.083 5.005 137.583 4.51 138.213 4.17C138.843 3.82 139.548 3.645 140.328 3.645C141.108 3.645 141.813 3.82 142.443 4.17C143.073 4.51 143.568 5 143.928 5.64C144.298 6.28 144.483 7.025 144.483 7.875C144.483 8.725 144.293 9.475 143.913 10.125C143.543 10.765 143.038 11.26 142.398 11.61C141.758 11.96 141.048 12.135 140.268 12.135ZM140.268 10.935C140.758 10.935 141.218 10.82 141.648 10.59C142.078 10.36 142.423 10.015 142.683 9.555C142.953 9.095 143.088 8.535 143.088 7.875C143.088 7.215 142.958 6.655 142.698 6.195C142.438 5.735 142.098 5.395 141.678 5.175C141.258 4.945 140.803 4.83 140.313 4.83C139.813 4.83 139.353 4.945 138.933 5.175C138.523 5.395 138.193 5.735 137.943 6.195C137.693 6.655 137.568 7.215 137.568 7.875C137.568 8.545 137.688 9.11 137.928 9.57C138.178 10.03 138.508 10.375 138.918 10.605C139.328 10.825 139.778 10.935 140.268 10.935ZM153.568 3.78V12H152.203V10.785C151.943 11.205 151.578 11.535 151.108 11.775C150.648 12.005 150.138 12.12 149.578 12.12C148.938 12.12 148.363 11.99 147.853 11.73C147.343 11.46 146.938 11.06 146.638 10.53C146.348 10 146.203 9.355 146.203 8.595V3.78H147.553V8.415C147.553 9.225 147.758 9.85 148.168 10.29C148.578 10.72 149.138 10.935 149.848 10.935C150.578 10.935 151.153 10.71 151.573 10.26C151.993 9.81 152.203 9.155 152.203 8.295V3.78H153.568ZM159.878 3.63C160.878 3.63 161.688 3.935 162.308 4.545C162.928 5.145 163.238 6.015 163.238 7.155V12H161.888V7.35C161.888 6.53 161.683 5.905 161.273 5.475C160.863 5.035 160.303 4.815 159.593 4.815C158.873 4.815 158.298 5.04 157.868 5.49C157.448 5.94 157.238 6.595 157.238 7.455V12H155.873V3.78H157.238V4.95C157.508 4.53 157.873 4.205 158.333 3.975C158.803 3.745 159.318 3.63 159.878 3.63ZM167.133 4.905V9.75C167.133 10.15 167.218 10.435 167.388 10.605C167.558 10.765 167.853 10.845 168.272 10.845H169.278V12H168.048C167.288 12 166.718 11.825 166.338 11.475C165.958 11.125 165.768 10.55 165.768 9.75V4.905H164.703V3.78H165.768V1.71H167.133V3.78H169.278V4.905H167.133ZM173.601 1.41C174.591 1.41 175.391 1.69 176.001 2.25C176.611 2.81 176.916 3.56 176.916 4.5C176.916 5.55 176.591 6.33 175.941 6.84C175.291 7.34 174.411 7.59 173.301 7.59L173.256 9.015H172.071L172.011 6.645H172.446C173.436 6.645 174.211 6.495 174.771 6.195C175.331 5.895 175.611 5.33 175.611 4.5C175.611 3.9 175.431 3.425 175.071 3.075C174.711 2.725 174.226 2.55 173.616 2.55C172.996 2.55 172.506 2.72 172.146 3.06C171.796 3.39 171.621 3.845 171.621 4.425H170.331C170.331 3.825 170.466 3.3 170.736 2.85C171.006 2.39 171.386 2.035 171.876 1.785C172.376 1.535 172.951 1.41 173.601 1.41ZM172.656 12.09C172.396 12.09 172.176 12 171.996 11.82C171.816 11.64 171.726 11.42 171.726 11.16C171.726 10.9 171.816 10.68 171.996 10.5C172.176 10.32 172.396 10.23 172.656 10.23C172.906 10.23 173.116 10.32 173.286 10.5C173.466 10.68 173.556 10.9 173.556 11.16C173.556 11.42 173.466 11.64 173.286 11.82C173.116 12 172.906 12.09 172.656 12.09Z" fill="#6A707C"/>
<path d="M188.302 12L185.812 7.725H184.162V12H182.797V1.545H186.172C186.962 1.545 187.627 1.68 188.167 1.95C188.717 2.22 189.127 2.585 189.397 3.045C189.667 3.505 189.802 4.03 189.802 4.62C189.802 5.34 189.592 5.975 189.172 6.525C188.762 7.075 188.142 7.44 187.312 7.62L189.937 12H188.302ZM184.162 6.63H186.172C186.912 6.63 187.467 6.45 187.837 6.09C188.207 5.72 188.392 5.23 188.392 4.62C188.392 4 188.207 3.52 187.837 3.18C187.477 2.84 186.922 2.67 186.172 2.67H184.162V6.63ZM199.423 7.575C199.423 7.835 199.408 8.11 199.378 8.4H192.808C192.858 9.21 193.133 9.845 193.633 10.305C194.143 10.755 194.758 10.98 195.478 10.98C196.068 10.98 196.558 10.845 196.948 10.575C197.348 10.295 197.628 9.925 197.788 9.465H199.258C199.038 10.255 198.598 10.9 197.938 11.4C197.278 11.89 196.458 12.135 195.478 12.135C194.698 12.135 193.998 11.96 193.378 11.61C192.768 11.26 192.288 10.765 191.938 10.125C191.588 9.475 191.413 8.725 191.413 7.875C191.413 7.025 191.583 6.28 191.923 5.64C192.263 5 192.738 4.51 193.348 4.17C193.968 3.82 194.678 3.645 195.478 3.645C196.258 3.645 196.948 3.815 197.548 4.155C198.148 4.495 198.608 4.965 198.928 5.565C199.258 6.155 199.423 6.825 199.423 7.575ZM198.013 7.29C198.013 6.77 197.898 6.325 197.668 5.955C197.438 5.575 197.123 5.29 196.723 5.1C196.333 4.9 195.898 4.8 195.418 4.8C194.728 4.8 194.138 5.02 193.648 5.46C193.168 5.9 192.893 6.51 192.823 7.29H198.013ZM204.614 3.645C205.324 3.645 205.944 3.8 206.474 4.11C207.014 4.42 207.414 4.81 207.674 5.28V3.78H209.054V12.18C209.054 12.93 208.894 13.595 208.574 14.175C208.254 14.765 207.794 15.225 207.194 15.555C206.604 15.885 205.914 16.05 205.124 16.05C204.044 16.05 203.144 15.795 202.424 15.285C201.704 14.775 201.279 14.08 201.149 13.2H202.499C202.649 13.7 202.959 14.1 203.429 14.4C203.899 14.71 204.464 14.865 205.124 14.865C205.874 14.865 206.484 14.63 206.954 14.16C207.434 13.69 207.674 13.03 207.674 12.18V10.455C207.404 10.935 207.004 11.335 206.474 11.655C205.944 11.975 205.324 12.135 204.614 12.135C203.884 12.135 203.219 11.955 202.619 11.595C202.029 11.235 201.564 10.73 201.224 10.08C200.884 9.43 200.714 8.69 200.714 7.86C200.714 7.02 200.884 6.285 201.224 5.655C201.564 5.015 202.029 4.52 202.619 4.17C203.219 3.82 203.884 3.645 204.614 3.645ZM207.674 7.875C207.674 7.255 207.549 6.715 207.299 6.255C207.049 5.795 206.709 5.445 206.279 5.205C205.859 4.955 205.394 4.83 204.884 4.83C204.374 4.83 203.909 4.95 203.489 5.19C203.069 5.43 202.734 5.78 202.484 6.24C202.234 6.7 202.109 7.24 202.109 7.86C202.109 8.49 202.234 9.04 202.484 9.51C202.734 9.97 203.069 10.325 203.489 10.575C203.909 10.815 204.374 10.935 204.884 10.935C205.394 10.935 205.859 10.815 206.279 10.575C206.709 10.325 207.049 9.97 207.299 9.51C207.549 9.04 207.674 8.495 207.674 7.875ZM212.066 2.445C211.806 2.445 211.586 2.355 211.406 2.175C211.226 1.995 211.136 1.775 211.136 1.515C211.136 1.255 211.226 1.035 211.406 0.855C211.586 0.674999 211.806 0.584999 212.066 0.584999C212.316 0.584999 212.526 0.674999 212.696 0.855C212.876 1.035 212.966 1.255 212.966 1.515C212.966 1.775 212.876 1.995 212.696 2.175C212.526 2.355 212.316 2.445 212.066 2.445ZM212.726 3.78V12H211.361V3.78H212.726ZM217.962 12.135C217.332 12.135 216.767 12.03 216.267 11.82C215.767 11.6 215.372 11.3 215.082 10.92C214.792 10.53 214.632 10.085 214.602 9.585H216.012C216.052 9.995 216.242 10.33 216.582 10.59C216.932 10.85 217.387 10.98 217.947 10.98C218.467 10.98 218.877 10.865 219.177 10.635C219.477 10.405 219.627 10.115 219.627 9.765C219.627 9.405 219.467 9.14 219.147 8.97C218.827 8.79 218.332 8.615 217.662 8.445C217.052 8.285 216.552 8.125 216.162 7.965C215.782 7.795 215.452 7.55 215.172 7.23C214.902 6.9 214.767 6.47 214.767 5.94C214.767 5.52 214.892 5.135 215.142 4.785C215.392 4.435 215.747 4.16 216.207 3.96C216.667 3.75 217.192 3.645 217.782 3.645C218.692 3.645 219.427 3.875 219.987 4.335C220.547 4.795 220.847 5.425 220.887 6.225H219.522C219.492 5.795 219.317 5.45 218.997 5.19C218.687 4.93 218.267 4.8 217.737 4.8C217.247 4.8 216.857 4.905 216.567 5.115C216.277 5.325 216.132 5.6 216.132 5.94C216.132 6.21 216.217 6.435 216.387 6.615C216.567 6.785 216.787 6.925 217.047 7.035C217.317 7.135 217.687 7.25 218.157 7.38C218.747 7.54 219.227 7.7 219.597 7.86C219.967 8.01 220.282 8.24 220.542 8.55C220.812 8.86 220.952 9.265 220.962 9.765C220.962 10.215 220.837 10.62 220.587 10.98C220.337 11.34 219.982 11.625 219.522 11.835C219.072 12.035 218.552 12.135 217.962 12.135ZM224.554 4.905V9.75C224.554 10.15 224.639 10.435 224.809 10.605C224.979 10.765 225.274 10.845 225.694 10.845H226.699V12H225.469C224.709 12 224.139 11.825 223.759 11.475C223.379 11.125 223.189 10.55 223.189 9.75V4.905H222.124V3.78H223.189V1.71H224.554V3.78H226.699V4.905H224.554ZM235.853 7.575C235.853 7.835 235.838 8.11 235.808 8.4H229.238C229.288 9.21 229.563 9.845 230.063 10.305C230.573 10.755 231.188 10.98 231.908 10.98C232.498 10.98 232.988 10.845 233.378 10.575C233.778 10.295 234.058 9.925 234.218 9.465H235.688C235.468 10.255 235.028 10.9 234.368 11.4C233.708 11.89 232.888 12.135 231.908 12.135C231.128 12.135 230.428 11.96 229.808 11.61C229.198 11.26 228.718 10.765 228.368 10.125C228.018 9.475 227.843 8.725 227.843 7.875C227.843 7.025 228.013 6.28 228.353 5.64C228.693 5 229.168 4.51 229.778 4.17C230.398 3.82 231.108 3.645 231.908 3.645C232.688 3.645 233.378 3.815 233.978 4.155C234.578 4.495 235.038 4.965 235.358 5.565C235.688 6.155 235.853 6.825 235.853 7.575ZM234.443 7.29C234.443 6.77 234.328 6.325 234.098 5.955C233.868 5.575 233.553 5.29 233.153 5.1C232.763 4.9 232.328 4.8 231.848 4.8C231.158 4.8 230.568 5.02 230.078 5.46C229.598 5.9 229.323 6.51 229.253 7.29H234.443ZM239.02 5.115C239.26 4.645 239.6 4.28 240.04 4.02C240.49 3.76 241.035 3.63 241.675 3.63V5.04H241.315C239.785 5.04 239.02 5.87 239.02 7.53V12H237.655V3.78H239.02V5.115ZM255.47 12H254.105L248.615 3.675V12H247.25V1.53H248.615L254.105 9.84V1.53H255.47V12ZM261.382 12.135C260.612 12.135 259.912 11.96 259.282 11.61C258.662 11.26 258.172 10.765 257.812 10.125C257.462 9.475 257.287 8.725 257.287 7.875C257.287 7.035 257.467 6.295 257.827 5.655C258.197 5.005 258.697 4.51 259.327 4.17C259.957 3.82 260.662 3.645 261.442 3.645C262.222 3.645 262.927 3.82 263.557 4.17C264.187 4.51 264.682 5 265.042 5.64C265.412 6.28 265.597 7.025 265.597 7.875C265.597 8.725 265.407 9.475 265.027 10.125C264.657 10.765 264.152 11.26 263.512 11.61C262.872 11.96 262.162 12.135 261.382 12.135ZM261.382 10.935C261.872 10.935 262.332 10.82 262.762 10.59C263.192 10.36 263.537 10.015 263.797 9.555C264.067 9.095 264.202 8.535 264.202 7.875C264.202 7.215 264.072 6.655 263.812 6.195C263.552 5.735 263.212 5.395 262.792 5.175C262.372 4.945 261.917 4.83 261.427 4.83C260.927 4.83 260.467 4.945 260.047 5.175C259.637 5.395 259.307 5.735 259.057 6.195C258.807 6.655 258.682 7.215 258.682 7.875C258.682 8.545 258.802 9.11 259.042 9.57C259.292 10.03 259.622 10.375 260.032 10.605C260.442 10.825 260.892 10.935 261.382 10.935ZM278.341 3.78L275.776 12H274.366L272.386 5.475L270.406 12H268.996L266.416 3.78H267.811L269.701 10.68L271.741 3.78H273.136L275.131 10.695L276.991 3.78H278.341Z" fill="#87B272"/>
</svg>
