<svg width="131" height="17" viewBox="0 0 131 17" fill="none" xmlns="http://www.w3.org/2000/svg">
<path d="M6.12652 1.545V2.655H1.58152V6.18H5.27152V7.29H1.58152V12H0.216524V1.545H6.12652ZM11.3601 12.135C10.5901 12.135 9.89012 11.96 9.26012 11.61C8.64012 11.26 8.15012 10.765 7.79012 10.125C7.44012 9.475 7.26512 8.725 7.26512 7.875C7.26512 7.035 7.44512 6.295 7.80512 5.655C8.17512 5.005 8.67512 4.51 9.30512 4.17C9.93512 3.82 10.6401 3.645 11.4201 3.645C12.2001 3.645 12.9051 3.82 13.5351 4.17C14.1651 4.51 14.6601 5 15.0201 5.64C15.3901 6.28 15.5751 7.025 15.5751 7.875C15.5751 8.725 15.3851 9.475 15.0051 10.125C14.6351 10.765 14.1301 11.26 13.4901 11.61C12.8501 11.96 12.1401 12.135 11.3601 12.135ZM11.3601 10.935C11.8501 10.935 12.3101 10.82 12.7401 10.59C13.1701 10.36 13.5151 10.015 13.7751 9.555C14.0451 9.095 14.1801 8.535 14.1801 7.875C14.1801 7.215 14.0501 6.655 13.7901 6.195C13.5301 5.735 13.1901 5.395 12.7701 5.175C12.3501 4.945 11.8951 4.83 11.4051 4.83C10.9051 4.83 10.4451 4.945 10.0251 5.175C9.61512 5.395 9.28512 5.735 9.03512 6.195C8.78512 6.655 8.66012 7.215 8.66012 7.875C8.66012 8.545 8.78012 9.11 9.02012 9.57C9.27012 10.03 9.60012 10.375 10.0101 10.605C10.4201 10.825 10.8701 10.935 11.3601 10.935ZM18.7348 5.115C18.9748 4.645 19.3148 4.28 19.7548 4.02C20.2048 3.76 20.7498 3.63 21.3898 3.63V5.04H21.0298C19.4998 5.04 18.7348 5.87 18.7348 7.53V12H17.3698V3.78H18.7348V5.115ZM26.3555 3.645C27.0655 3.645 27.6855 3.8 28.2155 4.11C28.7555 4.42 29.1555 4.81 29.4155 5.28V3.78H30.7955V12.18C30.7955 12.93 30.6355 13.595 30.3155 14.175C29.9955 14.765 29.5355 15.225 28.9355 15.555C28.3455 15.885 27.6555 16.05 26.8655 16.05C25.7855 16.05 24.8855 15.795 24.1655 15.285C23.4455 14.775 23.0205 14.08 22.8905 13.2H24.2405C24.3905 13.7 24.7005 14.1 25.1705 14.4C25.6405 14.71 26.2055 14.865 26.8655 14.865C27.6155 14.865 28.2255 14.63 28.6955 14.16C29.1755 13.69 29.4155 13.03 29.4155 12.18V10.455C29.1455 10.935 28.7455 11.335 28.2155 11.655C27.6855 11.975 27.0655 12.135 26.3555 12.135C25.6255 12.135 24.9605 11.955 24.3605 11.595C23.7705 11.235 23.3055 10.73 22.9655 10.08C22.6255 9.43 22.4555 8.69 22.4555 7.86C22.4555 7.02 22.6255 6.285 22.9655 5.655C23.3055 5.015 23.7705 4.52 24.3605 4.17C24.9605 3.82 25.6255 3.645 26.3555 3.645ZM29.4155 7.875C29.4155 7.255 29.2905 6.715 29.0405 6.255C28.7905 5.795 28.4505 5.445 28.0205 5.205C27.6005 4.955 27.1355 4.83 26.6255 4.83C26.1155 4.83 25.6505 4.95 25.2305 5.19C24.8105 5.43 24.4755 5.78 24.2255 6.24C23.9755 6.7 23.8505 7.24 23.8505 7.86C23.8505 8.49 23.9755 9.04 24.2255 9.51C24.4755 9.97 24.8105 10.325 25.2305 10.575C25.6505 10.815 26.1155 10.935 26.6255 10.935C27.1355 10.935 27.6005 10.815 28.0205 10.575C28.4505 10.325 28.7905 9.97 29.0405 9.51C29.2905 9.04 29.4155 8.495 29.4155 7.875ZM36.6873 12.135C35.9173 12.135 35.2173 11.96 34.5873 11.61C33.9673 11.26 33.4773 10.765 33.1173 10.125C32.7673 9.475 32.5923 8.725 32.5923 7.875C32.5923 7.035 32.7723 6.295 33.1323 5.655C33.5023 5.005 34.0023 4.51 34.6323 4.17C35.2623 3.82 35.9673 3.645 36.7473 3.645C37.5273 3.645 38.2323 3.82 38.8623 4.17C39.4923 4.51 39.9873 5 40.3473 5.64C40.7173 6.28 40.9023 7.025 40.9023 7.875C40.9023 8.725 40.7123 9.475 40.3323 10.125C39.9623 10.765 39.4573 11.26 38.8173 11.61C38.1773 11.96 37.4673 12.135 36.6873 12.135ZM36.6873 10.935C37.1773 10.935 37.6373 10.82 38.0673 10.59C38.4973 10.36 38.8423 10.015 39.1023 9.555C39.3723 9.095 39.5073 8.535 39.5073 7.875C39.5073 7.215 39.3773 6.655 39.1173 6.195C38.8573 5.735 38.5173 5.395 38.0973 5.175C37.6773 4.945 37.2223 4.83 36.7323 4.83C36.2323 4.83 35.7723 4.945 35.3523 5.175C34.9423 5.395 34.6123 5.735 34.3623 6.195C34.1123 6.655 33.9873 7.215 33.9873 7.875C33.9873 8.545 34.1073 9.11 34.3473 9.57C34.5973 10.03 34.9273 10.375 35.3373 10.605C35.7473 10.825 36.1973 10.935 36.6873 10.935ZM44.362 4.905V9.75C44.362 10.15 44.447 10.435 44.617 10.605C44.787 10.765 45.082 10.845 45.502 10.845H46.507V12H45.277C44.517 12 43.947 11.825 43.567 11.475C43.187 11.125 42.997 10.55 42.997 9.75V4.905H41.932V3.78H42.997V1.71H44.362V3.78H46.507V4.905H44.362ZM59.1499 4.605C59.1499 5.475 58.8499 6.2 58.2499 6.78C57.6599 7.35 56.7549 7.635 55.5349 7.635H53.5249V12H52.1599V1.545H55.5349C56.7149 1.545 57.6099 1.83 58.2199 2.4C58.8399 2.97 59.1499 3.705 59.1499 4.605ZM55.5349 6.51C56.2949 6.51 56.8549 6.345 57.2149 6.015C57.5749 5.685 57.7549 5.215 57.7549 4.605C57.7549 3.315 57.0149 2.67 55.5349 2.67H53.5249V6.51H55.5349ZM60.3364 7.86C60.3364 7.02 60.5064 6.285 60.8464 5.655C61.1864 5.015 61.6514 4.52 62.2414 4.17C62.8414 3.82 63.5064 3.645 64.2364 3.645C64.9564 3.645 65.5814 3.8 66.1114 4.11C66.6414 4.42 67.0364 4.81 67.2964 5.28V3.78H68.6764V12H67.2964V10.47C67.0264 10.95 66.6214 11.35 66.0814 11.67C65.5514 11.98 64.9314 12.135 64.2214 12.135C63.4914 12.135 62.8314 11.955 62.2414 11.595C61.6514 11.235 61.1864 10.73 60.8464 10.08C60.5064 9.43 60.3364 8.69 60.3364 7.86ZM67.2964 7.875C67.2964 7.255 67.1714 6.715 66.9214 6.255C66.6714 5.795 66.3314 5.445 65.9014 5.205C65.4814 4.955 65.0164 4.83 64.5064 4.83C63.9964 4.83 63.5314 4.95 63.1114 5.19C62.6914 5.43 62.3564 5.78 62.1064 6.24C61.8564 6.7 61.7314 7.24 61.7314 7.86C61.7314 8.49 61.8564 9.04 62.1064 9.51C62.3564 9.97 62.6914 10.325 63.1114 10.575C63.5314 10.815 63.9964 10.935 64.5064 10.935C65.0164 10.935 65.4814 10.815 65.9014 10.575C66.3314 10.325 66.6714 9.97 66.9214 9.51C67.1714 9.04 67.2964 8.495 67.2964 7.875ZM73.8931 12.135C73.2631 12.135 72.6981 12.03 72.1981 11.82C71.6981 11.6 71.3031 11.3 71.0131 10.92C70.7231 10.53 70.5631 10.085 70.5331 9.585H71.9431C71.9831 9.995 72.1731 10.33 72.5131 10.59C72.8631 10.85 73.3181 10.98 73.8781 10.98C74.3981 10.98 74.8081 10.865 75.1081 10.635C75.4081 10.405 75.5581 10.115 75.5581 9.765C75.5581 9.405 75.3981 9.14 75.0781 8.97C74.7581 8.79 74.2631 8.615 73.5931 8.445C72.9831 8.285 72.4831 8.125 72.0931 7.965C71.7131 7.795 71.3831 7.55 71.1031 7.23C70.8331 6.9 70.6981 6.47 70.6981 5.94C70.6981 5.52 70.8231 5.135 71.0731 4.785C71.3231 4.435 71.6781 4.16 72.1381 3.96C72.5981 3.75 73.1231 3.645 73.7131 3.645C74.6231 3.645 75.3581 3.875 75.9181 4.335C76.4781 4.795 76.7781 5.425 76.8181 6.225H75.4531C75.4231 5.795 75.2481 5.45 74.9281 5.19C74.6181 4.93 74.1981 4.8 73.6681 4.8C73.1781 4.8 72.7881 4.905 72.4981 5.115C72.2081 5.325 72.0631 5.6 72.0631 5.94C72.0631 6.21 72.1481 6.435 72.3181 6.615C72.4981 6.785 72.7181 6.925 72.9781 7.035C73.2481 7.135 73.6181 7.25 74.0881 7.38C74.6781 7.54 75.1581 7.7 75.5281 7.86C75.8981 8.01 76.2131 8.24 76.4731 8.55C76.7431 8.86 76.8831 9.265 76.8931 9.765C76.8931 10.215 76.7681 10.62 76.5181 10.98C76.2681 11.34 75.9131 11.625 75.4531 11.835C75.0031 12.035 74.4831 12.135 73.8931 12.135ZM81.73 12.135C81.1 12.135 80.535 12.03 80.035 11.82C79.535 11.6 79.14 11.3 78.85 10.92C78.56 10.53 78.4 10.085 78.37 9.585H79.78C79.82 9.995 80.01 10.33 80.35 10.59C80.7 10.85 81.155 10.98 81.715 10.98C82.235 10.98 82.645 10.865 82.945 10.635C83.245 10.405 83.395 10.115 83.395 9.765C83.395 9.405 83.235 9.14 82.915 8.97C82.595 8.79 82.1 8.615 81.43 8.445C80.82 8.285 80.32 8.125 79.93 7.965C79.55 7.795 79.22 7.55 78.94 7.23C78.67 6.9 78.535 6.47 78.535 5.94C78.535 5.52 78.66 5.135 78.91 4.785C79.16 4.435 79.515 4.16 79.975 3.96C80.435 3.75 80.96 3.645 81.55 3.645C82.46 3.645 83.195 3.875 83.755 4.335C84.315 4.795 84.615 5.425 84.655 6.225H83.29C83.26 5.795 83.085 5.45 82.765 5.19C82.455 4.93 82.035 4.8 81.505 4.8C81.015 4.8 80.625 4.905 80.335 5.115C80.045 5.325 79.9 5.6 79.9 5.94C79.9 6.21 79.985 6.435 80.155 6.615C80.335 6.785 80.555 6.925 80.815 7.035C81.085 7.135 81.455 7.25 81.925 7.38C82.515 7.54 82.995 7.7 83.365 7.86C83.735 8.01 84.05 8.24 84.31 8.55C84.58 8.86 84.72 9.265 84.73 9.765C84.73 10.215 84.605 10.62 84.355 10.98C84.105 11.34 83.75 11.625 83.29 11.835C82.84 12.035 82.32 12.135 81.73 12.135ZM97.607 3.78L95.042 12H93.632L91.652 5.475L89.672 12H88.262L85.682 3.78H87.077L88.967 10.68L91.007 3.78H92.402L94.397 10.695L96.257 3.78H97.607ZM102.547 12.135C101.777 12.135 101.077 11.96 100.447 11.61C99.8266 11.26 99.3366 10.765 98.9766 10.125C98.6266 9.475 98.4516 8.725 98.4516 7.875C98.4516 7.035 98.6316 6.295 98.9916 5.655C99.3616 5.005 99.8616 4.51 100.492 4.17C101.122 3.82 101.827 3.645 102.607 3.645C103.387 3.645 104.092 3.82 104.722 4.17C105.352 4.51 105.847 5 106.207 5.64C106.577 6.28 106.762 7.025 106.762 7.875C106.762 8.725 106.572 9.475 106.192 10.125C105.822 10.765 105.317 11.26 104.677 11.61C104.037 11.96 103.327 12.135 102.547 12.135ZM102.547 10.935C103.037 10.935 103.497 10.82 103.927 10.59C104.357 10.36 104.702 10.015 104.962 9.555C105.232 9.095 105.367 8.535 105.367 7.875C105.367 7.215 105.237 6.655 104.977 6.195C104.717 5.735 104.377 5.395 103.957 5.175C103.537 4.945 103.082 4.83 102.592 4.83C102.092 4.83 101.632 4.945 101.212 5.175C100.802 5.395 100.472 5.735 100.222 6.195C99.9716 6.655 99.8466 7.215 99.8466 7.875C99.8466 8.545 99.9666 9.11 100.207 9.57C100.457 10.03 100.787 10.375 101.197 10.605C101.607 10.825 102.057 10.935 102.547 10.935ZM109.921 5.115C110.161 4.645 110.501 4.28 110.941 4.02C111.391 3.76 111.936 3.63 112.576 3.63V5.04H112.216C110.686 5.04 109.921 5.87 109.921 7.53V12H108.556V3.78H109.921V5.115ZM113.642 7.86C113.642 7.02 113.812 6.285 114.152 5.655C114.492 5.015 114.957 4.52 115.547 4.17C116.147 3.82 116.817 3.645 117.557 3.645C118.197 3.645 118.792 3.795 119.342 4.095C119.892 4.385 120.312 4.77 120.602 5.25V0.9H121.982V12H120.602V10.455C120.332 10.945 119.932 11.35 119.402 11.67C118.872 11.98 118.252 12.135 117.542 12.135C116.812 12.135 116.147 11.955 115.547 11.595C114.957 11.235 114.492 10.73 114.152 10.08C113.812 9.43 113.642 8.69 113.642 7.86ZM120.602 7.875C120.602 7.255 120.477 6.715 120.227 6.255C119.977 5.795 119.637 5.445 119.207 5.205C118.787 4.955 118.322 4.83 117.812 4.83C117.302 4.83 116.837 4.95 116.417 5.19C115.997 5.43 115.662 5.78 115.412 6.24C115.162 6.7 115.037 7.24 115.037 7.86C115.037 8.49 115.162 9.04 115.412 9.51C115.662 9.97 115.997 10.325 116.417 10.575C116.837 10.815 117.302 10.935 117.812 10.935C118.322 10.935 118.787 10.815 119.207 10.575C119.637 10.325 119.977 9.97 120.227 9.51C120.477 9.04 120.602 8.495 120.602 7.875ZM126.959 1.41C127.949 1.41 128.749 1.69 129.359 2.25C129.969 2.81 130.274 3.56 130.274 4.5C130.274 5.55 129.949 6.33 129.299 6.84C128.649 7.34 127.769 7.59 126.659 7.59L126.614 9.015H125.429L125.369 6.645H125.804C126.794 6.645 127.569 6.495 128.129 6.195C128.689 5.895 128.969 5.33 128.969 4.5C128.969 3.9 128.789 3.425 128.429 3.075C128.069 2.725 127.584 2.55 126.974 2.55C126.354 2.55 125.864 2.72 125.504 3.06C125.154 3.39 124.979 3.845 124.979 4.425H123.689C123.689 3.825 123.824 3.3 124.094 2.85C124.364 2.39 124.744 2.035 125.234 1.785C125.734 1.535 126.309 1.41 126.959 1.41ZM126.014 12.09C125.754 12.09 125.534 12 125.354 11.82C125.174 11.64 125.084 11.42 125.084 11.16C125.084 10.9 125.174 10.68 125.354 10.5C125.534 10.32 125.754 10.23 126.014 10.23C126.264 10.23 126.474 10.32 126.644 10.5C126.824 10.68 126.914 10.9 126.914 11.16C126.914 11.42 126.824 11.64 126.644 11.82C126.474 12 126.264 12.09 126.014 12.09Z" fill="#6A707C"/>
</svg>
