<svg width="210" height="17" viewBox="0 0 210 17" fill="none" xmlns="http://www.w3.org/2000/svg">
<path d="M6.08139 12L3.59139 7.725H1.94139V12H0.576387V1.545H3.95139C4.74139 1.545 5.40639 1.68 5.94639 1.95C6.49639 2.22 6.90639 2.585 7.17639 3.045C7.44639 3.505 7.58139 4.03 7.58139 4.62C7.58139 5.34 7.37139 5.975 6.95139 6.525C6.54139 7.075 5.92139 7.44 5.09139 7.62L7.71639 12H6.08139ZM1.94139 6.63H3.95139C4.69139 6.63 5.24639 6.45 5.61639 6.09C5.98639 5.72 6.17139 5.23 6.17139 4.62C6.17139 4 5.98639 3.52 5.61639 3.18C5.25639 2.84 4.70139 2.67 3.95139 2.67H1.94139V6.63ZM17.2024 7.575C17.2024 7.835 17.1874 8.11 17.1574 8.4H10.5874C10.6374 9.21 10.9124 9.845 11.4124 10.305C11.9224 10.755 12.5374 10.98 13.2574 10.98C13.8474 10.98 14.3374 10.845 14.7274 10.575C15.1274 10.295 15.4074 9.925 15.5674 9.465H17.0374C16.8174 10.255 16.3774 10.9 15.7174 11.4C15.0574 11.89 14.2374 12.135 13.2574 12.135C12.4774 12.135 11.7774 11.96 11.1574 11.61C10.5474 11.26 10.0674 10.765 9.71736 10.125C9.36736 9.475 9.19236 8.725 9.19236 7.875C9.19236 7.025 9.36236 6.28 9.70236 5.64C10.0424 5 10.5174 4.51 11.1274 4.17C11.7474 3.82 12.4574 3.645 13.2574 3.645C14.0374 3.645 14.7274 3.815 15.3274 4.155C15.9274 4.495 16.3874 4.965 16.7074 5.565C17.0374 6.155 17.2024 6.825 17.2024 7.575ZM15.7924 7.29C15.7924 6.77 15.6774 6.325 15.4474 5.955C15.2174 5.575 14.9024 5.29 14.5024 5.1C14.1124 4.9 13.6774 4.8 13.1974 4.8C12.5074 4.8 11.9174 5.02 11.4274 5.46C10.9474 5.9 10.6724 6.51 10.6024 7.29H15.7924ZM28.8891 3.63C29.5291 3.63 30.0991 3.765 30.5991 4.035C31.0991 4.295 31.4941 4.69 31.7841 5.22C32.0741 5.75 32.2191 6.395 32.2191 7.155V12H30.8691V7.35C30.8691 6.53 30.6641 5.905 30.2541 5.475C29.8541 5.035 29.3091 4.815 28.6191 4.815C27.9091 4.815 27.3441 5.045 26.9241 5.505C26.5041 5.955 26.2941 6.61 26.2941 7.47V12H24.9441V7.35C24.9441 6.53 24.7391 5.905 24.3291 5.475C23.9291 5.035 23.3841 4.815 22.6941 4.815C21.9841 4.815 21.4191 5.045 20.9991 5.505C20.5791 5.955 20.3691 6.61 20.3691 7.47V12H19.0041V3.78H20.3691V4.965C20.6391 4.535 20.9991 4.205 21.4491 3.975C21.9091 3.745 22.4141 3.63 22.9641 3.63C23.6541 3.63 24.2641 3.785 24.7941 4.095C25.3241 4.405 25.7191 4.86 25.9791 5.46C26.2091 4.88 26.5891 4.43 27.1191 4.11C27.6491 3.79 28.2391 3.63 28.8891 3.63ZM41.9582 7.575C41.9582 7.835 41.9432 8.11 41.9132 8.4H35.3432C35.3932 9.21 35.6682 9.845 36.1682 10.305C36.6782 10.755 37.2932 10.98 38.0132 10.98C38.6032 10.98 39.0932 10.845 39.4832 10.575C39.8832 10.295 40.1632 9.925 40.3232 9.465H41.7932C41.5732 10.255 41.1332 10.9 40.4732 11.4C39.8132 11.89 38.9932 12.135 38.0132 12.135C37.2332 12.135 36.5332 11.96 35.9132 11.61C35.3032 11.26 34.8232 10.765 34.4732 10.125C34.1232 9.475 33.9482 8.725 33.9482 7.875C33.9482 7.025 34.1182 6.28 34.4582 5.64C34.7982 5 35.2732 4.51 35.8832 4.17C36.5032 3.82 37.2132 3.645 38.0132 3.645C38.7932 3.645 39.4832 3.815 40.0832 4.155C40.6832 4.495 41.1432 4.965 41.4632 5.565C41.7932 6.155 41.9582 6.825 41.9582 7.575ZM40.5482 7.29C40.5482 6.77 40.4332 6.325 40.2032 5.955C39.9732 5.575 39.6582 5.29 39.2582 5.1C38.8682 4.9 38.4332 4.8 37.9532 4.8C37.2632 4.8 36.6732 5.02 36.1832 5.46C35.7032 5.9 35.4282 6.51 35.3582 7.29H40.5482ZM53.645 3.63C54.285 3.63 54.855 3.765 55.355 4.035C55.855 4.295 56.25 4.69 56.54 5.22C56.83 5.75 56.975 6.395 56.975 7.155V12H55.625V7.35C55.625 6.53 55.42 5.905 55.01 5.475C54.61 5.035 54.065 4.815 53.375 4.815C52.665 4.815 52.1 5.045 51.68 5.505C51.26 5.955 51.05 6.61 51.05 7.47V12H49.7V7.35C49.7 6.53 49.495 5.905 49.085 5.475C48.685 5.035 48.14 4.815 47.45 4.815C46.74 4.815 46.175 5.045 45.755 5.505C45.335 5.955 45.125 6.61 45.125 7.47V12H43.76V3.78H45.125V4.965C45.395 4.535 45.755 4.205 46.205 3.975C46.665 3.745 47.17 3.63 47.72 3.63C48.41 3.63 49.02 3.785 49.55 4.095C50.08 4.405 50.475 4.86 50.735 5.46C50.965 4.88 51.345 4.43 51.875 4.11C52.405 3.79 52.995 3.63 53.645 3.63ZM60.5791 5.31C60.8591 4.82 61.2691 4.42 61.8091 4.11C62.3491 3.8 62.9641 3.645 63.6541 3.645C64.3941 3.645 65.0591 3.82 65.6491 4.17C66.2391 4.52 66.7041 5.015 67.0441 5.655C67.3841 6.285 67.5541 7.02 67.5541 7.86C67.5541 8.69 67.3841 9.43 67.0441 10.08C66.7041 10.73 66.2341 11.235 65.6341 11.595C65.0441 11.955 64.3841 12.135 63.6541 12.135C62.9441 12.135 62.3191 11.98 61.7791 11.67C61.2491 11.36 60.8491 10.965 60.5791 10.485V12H59.2141V0.9H60.5791V5.31ZM66.1591 7.86C66.1591 7.24 66.0341 6.7 65.7841 6.24C65.5341 5.78 65.1941 5.43 64.7641 5.19C64.3441 4.95 63.8791 4.83 63.3691 4.83C62.8691 4.83 62.4041 4.955 61.9741 5.205C61.5541 5.445 61.2141 5.8 60.9541 6.27C60.7041 6.73 60.5791 7.265 60.5791 7.875C60.5791 8.495 60.7041 9.04 60.9541 9.51C61.2141 9.97 61.5541 10.325 61.9741 10.575C62.4041 10.815 62.8691 10.935 63.3691 10.935C63.8791 10.935 64.3441 10.815 64.7641 10.575C65.1941 10.325 65.5341 9.97 65.7841 9.51C66.0341 9.04 66.1591 8.49 66.1591 7.86ZM76.8508 7.575C76.8508 7.835 76.8358 8.11 76.8058 8.4H70.2358C70.2858 9.21 70.5608 9.845 71.0608 10.305C71.5708 10.755 72.1858 10.98 72.9058 10.98C73.4958 10.98 73.9858 10.845 74.3758 10.575C74.7758 10.295 75.0558 9.925 75.2158 9.465H76.6858C76.4658 10.255 76.0258 10.9 75.3658 11.4C74.7058 11.89 73.8858 12.135 72.9058 12.135C72.1258 12.135 71.4258 11.96 70.8058 11.61C70.1958 11.26 69.7158 10.765 69.3658 10.125C69.0158 9.475 68.8408 8.725 68.8408 7.875C68.8408 7.025 69.0108 6.28 69.3508 5.64C69.6908 5 70.1658 4.51 70.7758 4.17C71.3958 3.82 72.1058 3.645 72.9058 3.645C73.6858 3.645 74.3758 3.815 74.9758 4.155C75.5758 4.495 76.0358 4.965 76.3558 5.565C76.6858 6.155 76.8508 6.825 76.8508 7.575ZM75.4408 7.29C75.4408 6.77 75.3258 6.325 75.0958 5.955C74.8658 5.575 74.5508 5.29 74.1508 5.1C73.7608 4.9 73.3258 4.8 72.8458 4.8C72.1558 4.8 71.5658 5.02 71.0758 5.46C70.5958 5.9 70.3208 6.51 70.2508 7.29H75.4408ZM80.0176 5.115C80.2576 4.645 80.5976 4.28 81.0376 4.02C81.4876 3.76 82.0326 3.63 82.6726 3.63V5.04H82.3126C80.7826 5.04 80.0176 5.87 80.0176 7.53V12H78.6526V3.78H80.0176V5.115ZM95.2373 4.605C95.2373 5.475 94.9373 6.2 94.3373 6.78C93.7473 7.35 92.8423 7.635 91.6223 7.635H89.6123V12H88.2473V1.545H91.6223C92.8023 1.545 93.6973 1.83 94.3073 2.4C94.9273 2.97 95.2373 3.705 95.2373 4.605ZM91.6223 6.51C92.3823 6.51 92.9423 6.345 93.3023 6.015C93.6623 5.685 93.8423 5.215 93.8423 4.605C93.8423 3.315 93.1023 2.67 91.6223 2.67H89.6123V6.51H91.6223ZM96.4238 7.86C96.4238 7.02 96.5938 6.285 96.9338 5.655C97.2738 5.015 97.7388 4.52 98.3288 4.17C98.9288 3.82 99.5938 3.645 100.324 3.645C101.044 3.645 101.669 3.8 102.199 4.11C102.729 4.42 103.124 4.81 103.384 5.28V3.78H104.764V12H103.384V10.47C103.114 10.95 102.709 11.35 102.169 11.67C101.639 11.98 101.019 12.135 100.309 12.135C99.5788 12.135 98.9188 11.955 98.3288 11.595C97.7388 11.235 97.2738 10.73 96.9338 10.08C96.5938 9.43 96.4238 8.69 96.4238 7.86ZM103.384 7.875C103.384 7.255 103.259 6.715 103.009 6.255C102.759 5.795 102.419 5.445 101.989 5.205C101.569 4.955 101.104 4.83 100.594 4.83C100.084 4.83 99.6188 4.95 99.1988 5.19C98.7788 5.43 98.4438 5.78 98.1938 6.24C97.9438 6.7 97.8188 7.24 97.8188 7.86C97.8188 8.49 97.9438 9.04 98.1938 9.51C98.4438 9.97 98.7788 10.325 99.1988 10.575C99.6188 10.815 100.084 10.935 100.594 10.935C101.104 10.935 101.569 10.815 101.989 10.575C102.419 10.325 102.759 9.97 103.009 9.51C103.259 9.04 103.384 8.495 103.384 7.875ZM109.981 12.135C109.351 12.135 108.786 12.03 108.286 11.82C107.786 11.6 107.391 11.3 107.101 10.92C106.811 10.53 106.651 10.085 106.621 9.585H108.031C108.071 9.995 108.261 10.33 108.601 10.59C108.951 10.85 109.406 10.98 109.966 10.98C110.486 10.98 110.896 10.865 111.196 10.635C111.496 10.405 111.646 10.115 111.646 9.765C111.646 9.405 111.486 9.14 111.166 8.97C110.846 8.79 110.351 8.615 109.681 8.445C109.071 8.285 108.571 8.125 108.181 7.965C107.801 7.795 107.471 7.55 107.191 7.23C106.921 6.9 106.786 6.47 106.786 5.94C106.786 5.52 106.911 5.135 107.161 4.785C107.411 4.435 107.766 4.16 108.226 3.96C108.686 3.75 109.211 3.645 109.801 3.645C110.711 3.645 111.446 3.875 112.006 4.335C112.566 4.795 112.866 5.425 112.906 6.225H111.541C111.511 5.795 111.336 5.45 111.016 5.19C110.706 4.93 110.286 4.8 109.756 4.8C109.266 4.8 108.876 4.905 108.586 5.115C108.296 5.325 108.151 5.6 108.151 5.94C108.151 6.21 108.236 6.435 108.406 6.615C108.586 6.785 108.806 6.925 109.066 7.035C109.336 7.135 109.706 7.25 110.176 7.38C110.766 7.54 111.246 7.7 111.616 7.86C111.986 8.01 112.301 8.24 112.561 8.55C112.831 8.86 112.971 9.265 112.981 9.765C112.981 10.215 112.856 10.62 112.606 10.98C112.356 11.34 112.001 11.625 111.541 11.835C111.091 12.035 110.571 12.135 109.981 12.135ZM117.817 12.135C117.187 12.135 116.622 12.03 116.122 11.82C115.622 11.6 115.227 11.3 114.937 10.92C114.647 10.53 114.487 10.085 114.457 9.585H115.867C115.907 9.995 116.097 10.33 116.437 10.59C116.787 10.85 117.242 10.98 117.802 10.98C118.322 10.98 118.732 10.865 119.032 10.635C119.332 10.405 119.482 10.115 119.482 9.765C119.482 9.405 119.322 9.14 119.002 8.97C118.682 8.79 118.187 8.615 117.517 8.445C116.907 8.285 116.407 8.125 116.017 7.965C115.637 7.795 115.307 7.55 115.027 7.23C114.757 6.9 114.622 6.47 114.622 5.94C114.622 5.52 114.747 5.135 114.997 4.785C115.247 4.435 115.602 4.16 116.062 3.96C116.522 3.75 117.047 3.645 117.637 3.645C118.547 3.645 119.282 3.875 119.842 4.335C120.402 4.795 120.702 5.425 120.742 6.225H119.377C119.347 5.795 119.172 5.45 118.852 5.19C118.542 4.93 118.122 4.8 117.592 4.8C117.102 4.8 116.712 4.905 116.422 5.115C116.132 5.325 115.987 5.6 115.987 5.94C115.987 6.21 116.072 6.435 116.242 6.615C116.422 6.785 116.642 6.925 116.902 7.035C117.172 7.135 117.542 7.25 118.012 7.38C118.602 7.54 119.082 7.7 119.452 7.86C119.822 8.01 120.137 8.24 120.397 8.55C120.667 8.86 120.807 9.265 120.817 9.765C120.817 10.215 120.692 10.62 120.442 10.98C120.192 11.34 119.837 11.625 119.377 11.835C118.927 12.035 118.407 12.135 117.817 12.135ZM133.694 3.78L131.129 12H129.719L127.739 5.475L125.759 12H124.349L121.769 3.78H123.164L125.054 10.68L127.094 3.78H128.489L130.484 10.695L132.344 3.78H133.694ZM138.634 12.135C137.864 12.135 137.164 11.96 136.534 11.61C135.914 11.26 135.424 10.765 135.064 10.125C134.714 9.475 134.539 8.725 134.539 7.875C134.539 7.035 134.719 6.295 135.079 5.655C135.449 5.005 135.949 4.51 136.579 4.17C137.209 3.82 137.914 3.645 138.694 3.645C139.474 3.645 140.179 3.82 140.809 4.17C141.439 4.51 141.934 5 142.294 5.64C142.664 6.28 142.849 7.025 142.849 7.875C142.849 8.725 142.659 9.475 142.279 10.125C141.909 10.765 141.404 11.26 140.764 11.61C140.124 11.96 139.414 12.135 138.634 12.135ZM138.634 10.935C139.124 10.935 139.584 10.82 140.014 10.59C140.444 10.36 140.789 10.015 141.049 9.555C141.319 9.095 141.454 8.535 141.454 7.875C141.454 7.215 141.324 6.655 141.064 6.195C140.804 5.735 140.464 5.395 140.044 5.175C139.624 4.945 139.169 4.83 138.679 4.83C138.179 4.83 137.719 4.945 137.299 5.175C136.889 5.395 136.559 5.735 136.309 6.195C136.059 6.655 135.934 7.215 135.934 7.875C135.934 8.545 136.054 9.11 136.294 9.57C136.544 10.03 136.874 10.375 137.284 10.605C137.694 10.825 138.144 10.935 138.634 10.935ZM146.009 5.115C146.249 4.645 146.589 4.28 147.029 4.02C147.479 3.76 148.024 3.63 148.664 3.63V5.04H148.304C146.774 5.04 146.009 5.87 146.009 7.53V12H144.644V3.78H146.009V5.115ZM149.729 7.86C149.729 7.02 149.899 6.285 150.239 5.655C150.579 5.015 151.044 4.52 151.634 4.17C152.234 3.82 152.904 3.645 153.644 3.645C154.284 3.645 154.879 3.795 155.429 4.095C155.979 4.385 156.399 4.77 156.689 5.25V0.9H158.069V12H156.689V10.455C156.419 10.945 156.019 11.35 155.489 11.67C154.959 11.98 154.339 12.135 153.629 12.135C152.899 12.135 152.234 11.955 151.634 11.595C151.044 11.235 150.579 10.73 150.239 10.08C149.899 9.43 149.729 8.69 149.729 7.86ZM156.689 7.875C156.689 7.255 156.564 6.715 156.314 6.255C156.064 5.795 155.724 5.445 155.294 5.205C154.874 4.955 154.409 4.83 153.899 4.83C153.389 4.83 152.924 4.95 152.504 5.19C152.084 5.43 151.749 5.78 151.499 6.24C151.249 6.7 151.124 7.24 151.124 7.86C151.124 8.49 151.249 9.04 151.499 9.51C151.749 9.97 152.084 10.325 152.504 10.575C152.924 10.815 153.389 10.935 153.899 10.935C154.409 10.935 154.874 10.815 155.294 10.575C155.724 10.325 156.064 9.97 156.314 9.51C156.564 9.04 156.689 8.495 156.689 7.875ZM163.046 1.41C164.036 1.41 164.836 1.69 165.446 2.25C166.056 2.81 166.361 3.56 166.361 4.5C166.361 5.55 166.036 6.33 165.386 6.84C164.736 7.34 163.856 7.59 162.746 7.59L162.701 9.015H161.516L161.456 6.645H161.891C162.881 6.645 163.656 6.495 164.216 6.195C164.776 5.895 165.056 5.33 165.056 4.5C165.056 3.9 164.876 3.425 164.516 3.075C164.156 2.725 163.671 2.55 163.061 2.55C162.441 2.55 161.951 2.72 161.591 3.06C161.241 3.39 161.066 3.845 161.066 4.425H159.776C159.776 3.825 159.911 3.3 160.181 2.85C160.451 2.39 160.831 2.035 161.321 1.785C161.821 1.535 162.396 1.41 163.046 1.41ZM162.101 12.09C161.841 12.09 161.621 12 161.441 11.82C161.261 11.64 161.171 11.42 161.171 11.16C161.171 10.9 161.261 10.68 161.441 10.5C161.621 10.32 161.841 10.23 162.101 10.23C162.351 10.23 162.561 10.32 162.731 10.5C162.911 10.68 163.001 10.9 163.001 11.16C163.001 11.42 162.911 11.64 162.731 11.82C162.561 12 162.351 12.09 162.101 12.09Z" fill="#6A707C"/>
<path d="M173.606 10.89H177.266V12H172.241V1.545H173.606V10.89ZM182.301 12.135C181.531 12.135 180.831 11.96 180.201 11.61C179.581 11.26 179.091 10.765 178.731 10.125C178.381 9.475 178.206 8.725 178.206 7.875C178.206 7.035 178.386 6.295 178.746 5.655C179.116 5.005 179.616 4.51 180.246 4.17C180.876 3.82 181.581 3.645 182.361 3.645C183.141 3.645 183.846 3.82 184.476 4.17C185.106 4.51 185.601 5 185.961 5.64C186.331 6.28 186.516 7.025 186.516 7.875C186.516 8.725 186.326 9.475 185.946 10.125C185.576 10.765 185.071 11.26 184.431 11.61C183.791 11.96 183.081 12.135 182.301 12.135ZM182.301 10.935C182.791 10.935 183.251 10.82 183.681 10.59C184.111 10.36 184.456 10.015 184.716 9.555C184.986 9.095 185.121 8.535 185.121 7.875C185.121 7.215 184.991 6.655 184.731 6.195C184.471 5.735 184.131 5.395 183.711 5.175C183.291 4.945 182.836 4.83 182.346 4.83C181.846 4.83 181.386 4.945 180.966 5.175C180.556 5.395 180.226 5.735 179.976 6.195C179.726 6.655 179.601 7.215 179.601 7.875C179.601 8.545 179.721 9.11 179.961 9.57C180.211 10.03 180.541 10.375 180.951 10.605C181.361 10.825 181.811 10.935 182.301 10.935ZM191.701 3.645C192.411 3.645 193.031 3.8 193.561 4.11C194.101 4.42 194.501 4.81 194.761 5.28V3.78H196.141V12.18C196.141 12.93 195.981 13.595 195.661 14.175C195.341 14.765 194.881 15.225 194.281 15.555C193.691 15.885 193.001 16.05 192.211 16.05C191.131 16.05 190.231 15.795 189.511 15.285C188.791 14.775 188.366 14.08 188.236 13.2H189.586C189.736 13.7 190.046 14.1 190.516 14.4C190.986 14.71 191.551 14.865 192.211 14.865C192.961 14.865 193.571 14.63 194.041 14.16C194.521 13.69 194.761 13.03 194.761 12.18V10.455C194.491 10.935 194.091 11.335 193.561 11.655C193.031 11.975 192.411 12.135 191.701 12.135C190.971 12.135 190.306 11.955 189.706 11.595C189.116 11.235 188.651 10.73 188.311 10.08C187.971 9.43 187.801 8.69 187.801 7.86C187.801 7.02 187.971 6.285 188.311 5.655C188.651 5.015 189.116 4.52 189.706 4.17C190.306 3.82 190.971 3.645 191.701 3.645ZM194.761 7.875C194.761 7.255 194.636 6.715 194.386 6.255C194.136 5.795 193.796 5.445 193.366 5.205C192.946 4.955 192.481 4.83 191.971 4.83C191.461 4.83 190.996 4.95 190.576 5.19C190.156 5.43 189.821 5.78 189.571 6.24C189.321 6.7 189.196 7.24 189.196 7.86C189.196 8.49 189.321 9.04 189.571 9.51C189.821 9.97 190.156 10.325 190.576 10.575C190.996 10.815 191.461 10.935 191.971 10.935C192.481 10.935 192.946 10.815 193.366 10.575C193.796 10.325 194.136 9.97 194.386 9.51C194.636 9.04 194.761 8.495 194.761 7.875ZM199.152 2.445C198.892 2.445 198.672 2.355 198.492 2.175C198.312 1.995 198.222 1.775 198.222 1.515C198.222 1.255 198.312 1.035 198.492 0.855C198.672 0.674999 198.892 0.584999 199.152 0.584999C199.402 0.584999 199.612 0.674999 199.782 0.855C199.962 1.035 200.052 1.255 200.052 1.515C200.052 1.775 199.962 1.995 199.782 2.175C199.612 2.355 199.402 2.445 199.152 2.445ZM199.812 3.78V12H198.447V3.78H199.812ZM206.144 3.63C207.144 3.63 207.954 3.935 208.574 4.545C209.194 5.145 209.504 6.015 209.504 7.155V12H208.154V7.35C208.154 6.53 207.949 5.905 207.539 5.475C207.129 5.035 206.569 4.815 205.859 4.815C205.139 4.815 204.564 5.04 204.134 5.49C203.714 5.94 203.504 6.595 203.504 7.455V12H202.139V3.78H203.504V4.95C203.774 4.53 204.139 4.205 204.599 3.975C205.069 3.745 205.584 3.63 206.144 3.63Z" fill="#87B272"/>
</svg>
